{
  "accessors": [
    {
      "bufferView": 2,
      "componentType": 5126,
      "count": 16963,
      "max": [
        1.240115761756897,
        0.34015944600105286,
        1.2401158809661865
      ],
      "min": [
        -1.240115761756897,
        -0.34015953540802,
        -1.2401156425476074
      ],
      "type": "VEC3"
    },
    {
      "bufferView": 2,
      "byteOffset": 203556,
      "componentType": 5126,
      "count": 16963,
      "max": [
        1.0,
        1.0,
        1.0
      ],
      "min": [
        -1.0,
        -1.0,
        -1.0
      ],
      "type": "VEC3"
    },
    {
      "bufferView": 1,
      "componentType": 5126,
      "count": 16963,
      "max": [
        1.0000001192092896,
        1.0
      ],
      "min": [
        0.0,
        -1.1920928955078125e-07
      ],
      "type": "VEC2"
    },
    {
      "bufferView": 0,
      "componentType": 5125,
      "count": 90624,
      "type": "SCALAR"
    },
    {
      "bufferView": 2,
      "byteOffset": 407112,
      "componentType": 5126,
      "count": 234,
      "max": [
        0.6292800307273865,
        0.30734699964523315,
        0.41306403279304504
      ],
      "min": [
        -0.6267394423484802,
        0.2656034529209137,
        -0.4218062460422516
      ],
      "type": "VEC3"
    },
    {
      "bufferView": 2,
      "byteOffset": 409920,
      "componentType": 5126,
      "count": 234,
      "max": [
        0.9864713549613953,
        -0.15659543871879578,
        0.9864713549613953
      ],
      "min": [
        -0.9864713549613953,
        -0.9967303276062012,
        -0.9864713549613953
      ],
      "type": "VEC3"
    },
    {
      "bufferView": 1,
      "byteOffset": 135704,
      "componentType": 5126,
      "count": 234,
      "max": [
        1.0,
        1.0
      ],
      "min": [
        0.0,
        0.0
      ],
      "type": "VEC2"
    },
    {
      "bufferView": 0,
      "byteOffset": 362496,
      "componentType": 5125,
      "count": 1182,
      "type": "SCALAR"
    },
    {
      "bufferView": 2,
      "byteOffset": 412728,
      "componentType": 5126,
      "count": 3110,
      "max": [
        0.6048008799552917,
        0.5104917883872986,
        0.30889150500297546
      ],
      "min": [
        -0.6371595859527588,
        0.25022655725479126,
        -0.3274042010307312
      ],
      "type": "VEC3"
    },
    {
      "bufferView": 2,
      "byteOffset": 450048,
      "componentType": 5126,
      "count": 3110,
      "max": [
        0.9969140291213989,
        1.0,
        0.9969216585159302
      ],
      "min": [
        -0.9969140291213989,
        -1.0,
        -0.9969217777252197
      ],
      "type": "VEC3"
    },
    {
      "bufferView": 1,
      "byteOffset": 137576,
      "componentType": 5126,
      "count": 3110,
      "max": [
        1.0,
        1.0
      ],
      "min": [
        0.0,
        0.0
      ],
      "type": "VEC2"
    },
    {
      "bufferView": 0,
      "byteOffset": 367224,
      "componentType": 5125,
      "count": 15894,
      "type": "SCALAR"
    }
  ],
  "asset": {
    "extras": {
      "author": "pengedarseni (https://sketchfab.com/pengedarseni)",
      "license": "CC-BY-4.0 (http://creativecommons.org/licenses/by/4.0/)",
      "source": "https://sketchfab.com/3d-models/3d-zoom-app-logo-f60c07727ca94f98b9b6a51388ef8d07",
      "title": "3D Zoom App Logo"
    },
    "generator": "Sketchfab-15.58.0",
    "version": "2.0"
  },
  "bufferViews": [
    {
      "buffer": 0,
      "byteLength": 430800,
      "name": "floatBufferViews",
      "target": 34963
    },
    {
      "buffer": 0,
      "byteLength": 162456,
      "byteOffset": 430800,
      "byteStride": 8,
      "name": "floatBufferViews",
      "target": 34962
    },
    {
      "buffer": 0,
      "byteLength": 487368,
      "byteOffset": 593256,
      "byteStride": 12,
      "name": "floatBufferViews",
      "target": 34962
    }
  ],
  "buffers": [
    {
      "byteLength": 1080624,
      "uri": "scene.bin"
    }
  ],
  "materials": [
    {
      "doubleSided": true,
      "name": "glossy_zoom",
      "pbrMetallicRoughness": {
        "baseColorFactor": [
          0.0262412,
          0.262251,
          1.0,
          1.0
        ],
        "metallicFactor": 0.0,
        "roughnessFactor": 0.3
      }
    },
    {
      "doubleSided": true,
      "name": "GLOSSY_YT.004",
      "pbrMetallicRoughness": {
        "baseColorFactor": [
          0.799103,
          0.0176418,
          0.00749906,
          1.0
        ],
        "metallicFactor": 0.0,
        "roughnessFactor": 0.2
      }
    },
    {
      "doubleSided": true,
      "name": "glossy_putih.016",
      "pbrMetallicRoughness": {
        "baseColorFactor": [
          0.8,
          0.8,
          0.8,
          1.0
        ],
        "metallicFactor": 0.0,
        "roughnessFactor": 0.2
      }
    }
  ],
  "meshes": [
    {
      "name": "Object_0",
      "primitives": [
        {
          "attributes": {
            "NORMAL": 1,
            "POSITION": 0,
            "TEXCOORD_0": 2
          },
          "indices": 3,
          "material": 0,
          "mode": 4
        }
      ]
    },
    {
      "name": "Object_1",
      "primitives": [
        {
          "attributes": {
            "NORMAL": 5,
            "POSITION": 4,
            "TEXCOORD_0": 6
          },
          "indices": 7,
          "material": 1,
          "mode": 4
        }
      ]
    },
    {
      "name": "Object_2",
      "primitives": [
        {
          "attributes": {
            "NORMAL": 9,
            "POSITION": 8,
            "TEXCOORD_0": 10
          },
          "indices": 11,
          "material": 2,
          "mode": 4
        }
      ]
    }
  ],
  "nodes": [
    {
      "children": [
        1
      ],
      "matrix": [
        1.0,
        0.0,
        0.0,
        0.0,
        0.0,
        2.220446049250313e-16,
        -1.0,
        0.0,
        0.0,
        1.0,
        2.220446049250313e-16,
        0.0,
        0.0,
        0.0,
        0.0,
        1.0
      ],
      "name": "Sketchfab_model"
    },
    {
      "children": [
        2
      ],
      "name": "root"
    },
    {
      "children": [
        3
      ],
      "matrix": [
        1.0,
        0.0,
        0.0,
        0.0,
        0.0,
        2.220446049250313e-16,
        1.0,
        0.0,
        0.0,
        -1.0,
        2.220446049250313e-16,
        0.0,
        0.0,
        0.0,
        0.0,
        1.0
      ],
      "name": "GLTF_SceneRootNode"
    },
    {
      "children": [
        4,
        5,
        6
      ],
      "matrix": [
        0.8430913090705872,
        0.0,
        0.0,
        0.0,
        0.0,
        0.0,
        0.8430913090705872,
        0.0,
        0.0,
        -0.8430910706520081,
        0.0,
        0.0,
        0.0,
        3.0,
        6.0,
        1.0
      ],
      "name": "Cylinder.009_0"
    },
    {
      "mesh": 0,
      "name": "Object_4"
    },
    {
      "mesh": 1,
      "name": "Object_5"
    },
    {
      "mesh": 2,
      "name": "Object_6"
    }
  ],
  "scene": 0,
  "scenes": [
    {
      "name": "Sketchfab_Scene",
      "nodes": [
        0
      ]
    }
  ]
}
