{
  "accessors": [
    {
      "bufferView": 2,
      "componentType": 5126,
      "count": 8236,
      "max": [
        50.0,
        50.0,
        50.0
      ],
      "min": [
        -50.0,
        -50.0,
        -50.0
      ],
      "type": "VEC3"
    },
    {
      "bufferView": 2,
      "byteOffset": 98832,
      "componentType": 5126,
      "count": 8236,
      "type": "VEC3"
    },
    {
      "bufferView": 3,
      "componentType": 5126,
      "count": 8236,
      "type": "VEC4"
    },
    {
      "bufferView": 1,
      "componentType": 5126,
      "count": 8236,
      "type": "VEC2"
    },
    {
      "bufferView": 0,
      "componentType": 5125,
      "count": 46920,
      "type": "SCALAR"
    },
    {
      "bufferView": 2,
      "byteOffset": 197664,
      "componentType": 5126,
      "count": 3535,
      "max": [
        47.847007751464844,
        50.0,
        7.3365068435668945
      ],
      "min": [
        -49.75922775268555,
        -22.554874420166016,
        -19.134197235107422
      ],
      "type": "VEC3"
    },
    {
      "bufferView": 2,
      "byteOffset": 240084,
      "componentType": 5126,
      "count": 3535,
      "type": "VEC3"
    },
    {
      "bufferView": 3,
      "byteOffset": 131776,
      "componentType": 5126,
      "count": 3535,
      "type": "VEC4"
    },
    {
      "bufferView": 1,
      "byteOffset": 65888,
      "componentType": 5126,
      "count": 3535,
      "type": "VEC2"
    },
    {
      "bufferView": 0,
      "byteOffset": 187680,
      "componentType": 5125,
      "count": 10743,
      "type": "SCALAR"
    },
    {
      "bufferView": 2,
      "byteOffset": 282504,
      "componentType": 5126,
      "count": 65533,
      "max": [
        47.50746536254883,
        49.880096435546875,
        7.3365068435668945
      ],
      "min": [
        -49.57583999633789,
        -21.24039077758789,
        -19.026948928833008
      ],
      "type": "VEC3"
    },
    {
      "bufferView": 2,
      "byteOffset": 1068900,
      "componentType": 5126,
      "count": 65533,
      "type": "VEC3"
    },
    {
      "bufferView": 3,
      "byteOffset": 188336,
      "componentType": 5126,
      "count": 65533,
      "type": "VEC4"
    },
    {
      "bufferView": 1,
      "byteOffset": 94168,
      "componentType": 5126,
      "count": 65533,
      "type": "VEC2"
    },
    {
      "bufferView": 0,
      "byteOffset": 230652,
      "componentType": 5125,
      "count": 106434,
      "type": "SCALAR"
    },
    {
      "bufferView": 2,
      "byteOffset": 1855296,
      "componentType": 5126,
      "count": 65534,
      "max": [
        42.011688232421875,
        49.38452911376953,
        7.3365068435668945
      ],
      "min": [
        -48.52542495727539,
        -19.569074630737305,
        -18.574201583862305
      ],
      "type": "VEC3"
    },
    {
      "bufferView": 2,
      "byteOffset": 2641704,
      "componentType": 5126,
      "count": 65534,
      "type": "VEC3"
    },
    {
      "bufferView": 3,
      "byteOffset": 1236864,
      "componentType": 5126,
      "count": 65534,
      "type": "VEC4"
    },
    {
      "bufferView": 1,
      "byteOffset": 618432,
      "componentType": 5126,
      "count": 65534,
      "type": "VEC2"
    },
    {
      "bufferView": 0,
      "byteOffset": 656388,
      "componentType": 5125,
      "count": 98292,
      "type": "SCALAR"
    },
    {
      "bufferView": 2,
      "byteOffset": 3428112,
      "componentType": 5126,
      "count": 49454,
      "max": [
        47.81388854980469,
        49.9316291809082,
        7.2280988693237305
      ],
      "min": [
        -48.40911102294922,
        -22.543155670166016,
        -19.134197235107422
      ],
      "type": "VEC3"
    },
    {
      "bufferView": 2,
      "byteOffset": 4021560,
      "componentType": 5126,
      "count": 49454,
      "type": "VEC3"
    },
    {
      "bufferView": 3,
      "byteOffset": 2285408,
      "componentType": 5126,
      "count": 49454,
      "type": "VEC4"
    },
    {
      "bufferView": 1,
      "byteOffset": 1142704,
      "componentType": 5126,
      "count": 49454,
      "type": "VEC2"
    },
    {
      "bufferView": 0,
      "byteOffset": 1049556,
      "componentType": 5125,
      "count": 76002,
      "type": "SCALAR"
    },
    {
      "bufferView": 2,
      "byteOffset": 4615008,
      "componentType": 5126,
      "count": 2143,
      "max": [
        54.77664566040039,
        54.776649475097656,
        54.776649475097656
      ],
      "min": [
        -54.77665328979492,
        -54.776649475097656,
        -54.776649475097656
      ],
      "type": "VEC3"
    },
    {
      "bufferView": 2,
      "byteOffset": 4640724,
      "componentType": 5126,
      "count": 2143,
      "type": "VEC3"
    },
    {
      "bufferView": 1,
      "byteOffset": 1538336,
      "componentType": 5126,
      "count": 2143,
      "type": "VEC2"
    },
    {
      "bufferView": 0,
      "byteOffset": 1353564,
      "componentType": 5125,
      "count": 11904,
      "type": "SCALAR"
    }
  ],
  "asset": {
    "generator": "fab-model-conversion",
    "version": "2.0"
  },
  "bufferViews": [
    {
      "buffer": 0,
      "byteLength": 1401180,
      "target": 34963
    },
    {
      "buffer": 0,
      "byteLength": 1555480,
      "byteOffset": 1401180,
      "byteStride": 8,
      "target": 34962
    },
    {
      "buffer": 0,
      "byteLength": 4666440,
      "byteOffset": 2956660,
      "byteStride": 12,
      "target": 34962
    },
    {
      "buffer": 0,
      "byteLength": 3076672,
      "byteOffset": 7623100,
      "byteStride": 16,
      "target": 34962
    }
  ],
  "buffers": [
    {
      "byteLength": 10699772,
      "uri": "scene.bin"
    }
  ],
  "extensionsUsed": [
    "KHR_materials_emissive_strength"
  ],
  "images": [
    {
      "uri": "textures/material_baseColor.jpeg"
    },
    {
      "uri": "textures/material_metallicRoughness.jpeg"
    },
    {
      "uri": "textures/material_emissive.jpeg"
    },
    {
      "uri": "textures/material_normal.jpeg"
    },
    {
      "uri": "textures/material_1_baseColor.jpeg"
    },
    {
      "uri": "textures/material_1_metallicRoughness.jpeg"
    },
    {
      "uri": "textures/material_1_emissive.jpeg"
    },
    {
      "uri": "textures/material_1_normal.jpeg"
    },
    {
      "uri": "textures/material_2_baseColor.jpeg"
    },
    {
      "uri": "textures/material_2_normal.jpeg"
    }
  ],
  "materials": [
    {
      "doubleSided": true,
      "emissiveFactor": [
        1.0,
        1.0,
        1.0
      ],
      "emissiveTexture": {
        "index": 2
      },
      "extensions": {
        "KHR_materials_emissive_strength": {
          "emissiveStrength": 10
        }
      },
      "name": "material",
      "normalTexture": {
        "index": 3
      },
      "pbrMetallicRoughness": {
        "baseColorTexture": {
          "index": 0
        },
        "metallicRoughnessTexture": {
          "index": 1
        }
      }
    },
    {
      "doubleSided": true,
      "emissiveFactor": [
        1.0,
        1.0,
        1.0
      ],
      "emissiveTexture": {
        "index": 6
      },
      "extensions": {
        "KHR_materials_emissive_strength": {
          "emissiveStrength": 10
        }
      },
      "name": "material_1",
      "normalTexture": {
        "index": 7
      },
      "pbrMetallicRoughness": {
        "baseColorTexture": {
          "index": 4
        },
        "metallicRoughnessTexture": {
          "index": 5
        }
      }
    },
    {
      "doubleSided": true,
      "name": "material_2",
      "normalTexture": {
        "index": 9
      },
      "pbrMetallicRoughness": {
        "baseColorTexture": {
          "index": 8
        },
        "metallicRoughnessTexture": {
          "index": 5
        }
      }
    },
    {
      "alphaMode": "BLEND",
      "doubleSided": true,
      "name": "Mat20",
      "pbrMetallicRoughness": {
        "baseColorFactor": [
          0.15998960162740072,
          0.19472165626140547,
          0.4112454016134905,
          0.2570773215621181
        ]
      }
    }
  ],
  "meshes": [
    {
      "name": "TechnoPlanet_1_0",
      "primitives": [
        {
          "attributes": {
            "NORMAL": 1,
            "POSITION": 0,
            "TANGENT": 2,
            "TEXCOORD_0": 3
          },
          "indices": 4,
          "material": 0,
          "mode": 4
        }
      ]
    },
    {
      "name": "TechnoPlanetFlats_2_0",
      "primitives": [
        {
          "attributes": {
            "NORMAL": 6,
            "POSITION": 5,
            "TANGENT": 7,
            "TEXCOORD_0": 8
          },
          "indices": 9,
          "material": 1,
          "mode": 4
        }
      ]
    },
    {
      "name": "TechnoCity_3_0",
      "primitives": [
        {
          "attributes": {
            "NORMAL": 11,
            "POSITION": 10,
            "TANGENT": 12,
            "TEXCOORD_0": 13
          },
          "indices": 14,
          "material": 2,
          "mode": 4
        }
      ]
    },
    {
      "name": "TechnoCity_3_0",
      "primitives": [
        {
          "attributes": {
            "NORMAL": 16,
            "POSITION": 15,
            "TANGENT": 17,
            "TEXCOORD_0": 18
          },
          "indices": 19,
          "material": 2,
          "mode": 4
        }
      ]
    },
    {
      "name": "TechnoCity_3_0",
      "primitives": [
        {
          "attributes": {
            "NORMAL": 21,
            "POSITION": 20,
            "TANGENT": 22,
            "TEXCOORD_0": 23
          },
          "indices": 24,
          "material": 2,
          "mode": 4
        }
      ]
    },
    {
      "name": "Atmo_Mat20_0",
      "primitives": [
        {
          "attributes": {
            "NORMAL": 26,
            "POSITION": 25,
            "TEXCOORD_0": 27
          },
          "indices": 28,
          "material": 3,
          "mode": 4
        }
      ]
    }
  ],
  "nodes": [
    {
      "children": [
        1
      ],
      "matrix": [
        1.0,
        0.0,
        0.0,
        0.0,
        0.0,
        2.220446049250313e-16,
        -1.0,
        0.0,
        0.0,
        1.0,
        2.220446049250313e-16,
        0.0,
        0.0,
        0.0,
        0.0,
        1.0
      ],
      "name": "Sketchfab_model"
    },
    {
      "children": [
        2
      ],
      "matrix": [
        1.0,
        0.0,
        0.0,
        0.0,
        0.0,
        0.0,
        1.0,
        0.0,
        0.0,
        -1.0,
        0.0,
        0.0,
        0.0,
        0.0,
        0.0,
        1.0
      ],
      "name": "c6f4cfa1528348a0b319af457b7c9116.fbx"
    },
    {
      "children": [
        3,
        5,
        7,
        11
      ],
      "name": "RootNode"
    },
    {
      "children": [
        4
      ],
      "matrix": [
        1.0,
        0.0,
        0.0,
        0.0,
        0.0,
        2.220446049250313e-16,
        -1.0,
        0.0,
        0.0,
        1.0,
        2.220446049250313e-16,
        0.0,
        0.0,
        0.0,
        0.0,
        1.0
      ],
      "name": "TechnoPlanet"
    },
    {
      "mesh": 0,
      "name": "TechnoPlanet_1_0"
    },
    {
      "children": [
        6
      ],
      "matrix": [
        1.0,
        0.0,
        0.0,
        0.0,
        0.0,
        2.220446049250313e-16,
        -1.0,
        0.0,
        0.0,
        1.0,
        2.220446049250313e-16,
        0.0,
        0.0,
        0.0,
        0.0,
        1.0
      ],
      "name": "TechnoPlanetFlats"
    },
    {
      "mesh": 1,
      "name": "TechnoPlanetFlats_2_0"
    },
    {
      "children": [
        8,
        9,
        10
      ],
      "matrix": [
        1.0,
        0.0,
        0.0,
        0.0,
        0.0,
        2.220446049250313e-16,
        -1.0,
        0.0,
        0.0,
        1.0,
        2.220446049250313e-16,
        0.0,
        0.0,
        0.0,
        0.0,
        1.0
      ],
      "name": "TechnoCity"
    },
    {
      "mesh": 2,
      "name": "TechnoCity_3_0"
    },
    {
      "mesh": 3,
      "name": "TechnoCity_3_0"
    },
    {
      "mesh": 4,
      "name": "TechnoCity_3_0"
    },
    {
      "children": [
        12
      ],
      "matrix": [
        1.0,
        0.0,
        0.0,
        0.0,
        0.0,
        2.220446049250313e-16,
        -1.0,
        0.0,
        0.0,
        1.0,
        2.220446049250313e-16,
        0.0,
        0.0,
        0.0,
        0.0,
        1.0
      ],
      "name": "Atmo"
    },
    {
      "mesh": 5,
      "name": "Atmo_Mat20_0"
    }
  ],
  "samplers": [
    {
      "magFilter": 9729,
      "minFilter": 9987,
      "wrapS": 10497,
      "wrapT": 10497
    }
  ],
  "scene": 0,
  "scenes": [
    {
      "name": "Sketchfab_Scene",
      "nodes": [
        0
      ]
    }
  ],
  "textures": [
    {
      "sampler": 0,
      "source": 0
    },
    {
      "sampler": 0,
      "source": 1
    },
    {
      "sampler": 0,
      "source": 2
    },
    {
      "sampler": 0,
      "source": 3
    },
    {
      "sampler": 0,
      "source": 4
    },
    {
      "sampler": 0,
      "source": 5
    },
    {
      "sampler": 0,
      "source": 6
    },
    {
      "sampler": 0,
      "source": 7
    },
    {
      "sampler": 0,
      "source": 8
    },
    {
      "sampler": 0,
      "source": 9
    }
  ]
}
