{
  "accessors": [
    {
      "bufferView": 2,
      "componentType": 5126,
      "count": 65532,
      "max": [
        24.37177085876465,
        46.837806701660156,
        27.423063278198242
      ],
      "min": [
        -30.41143035888672,
        -46.755584716796875,
        23.0999813079834
      ],
      "type": "VEC3"
    },
    {
      "bufferView": 2,
      "byteOffset": 786384,
      "componentType": 5126,
      "count": 65532,
      "max": [
        1.0,
        1.0,
        1.0
      ],
      "min": [
        -1.0,
        -1.0,
        -1.0
      ],
      "type": "VEC3"
    },
    {
      "bufferView": 1,
      "componentType": 5126,
      "count": 65532,
      "max": [
        1.0000001192092896,
        1.0
      ],
      "min": [
        0.0,
        -0.016268093138933182
      ],
      "type": "VEC2"
    },
    {
      "bufferView": 1,
      "byteOffset": 524256,
      "componentType": 5126,
      "count": 65532,
      "max": [
        0.0,
        0.0
      ],
      "min": [
        0.0,
        0.0
      ],
      "type": "VEC2"
    },
    {
      "bufferView": 0,
      "componentType": 5125,
      "count": 218307,
      "type": "SCALAR"
    },
    {
      "bufferView": 2,
      "byteOffset": 1572768,
      "componentType": 5126,
      "count": 65532,
      "max": [
        24.37177085876465,
        50.14373016357422,
        27.99794578552246
      ],
      "min": [
        -29.694076538085938,
        -46.755584716796875,
        23.465391159057617
      ],
      "type": "VEC3"
    },
    {
      "bufferView": 2,
      "byteOffset": 2359152,
      "componentType": 5126,
      "count": 65532,
      "max": [
        1.0,
        1.0,
        1.0
      ],
      "min": [
        -1.0,
        -1.0,
        -1.0
      ],
      "type": "VEC3"
    },
    {
      "bufferView": 1,
      "byteOffset": 1048512,
      "componentType": 5126,
      "count": 65532,
      "max": [
        1.0000001192092896,
        1.0
      ],
      "min": [
        0.0,
        -0.01779809407889843
      ],
      "type": "VEC2"
    },
    {
      "bufferView": 1,
      "byteOffset": 1572768,
      "componentType": 5126,
      "count": 65532,
      "max": [
        0.0,
        0.0
      ],
      "min": [
        0.0,
        0.0
      ],
      "type": "VEC2"
    },
    {
      "bufferView": 0,
      "byteOffset": 873228,
      "componentType": 5125,
      "count": 155706,
      "type": "SCALAR"
    },
    {
      "bufferView": 2,
      "byteOffset": 3145536,
      "componentType": 5126,
      "count": 65532,
      "max": [
        28.909648895263672,
        46.837806701660156,
        27.39283561706543
      ],
      "min": [
        -30.41143035888672,
        -46.69424057006836,
        23.0999813079834
      ],
      "type": "VEC3"
    },
    {
      "bufferView": 2,
      "byteOffset": 3931920,
      "componentType": 5126,
      "count": 65532,
      "max": [
        1.0,
        1.0,
        1.0
      ],
      "min": [
        -1.0,
        -1.0,
        -1.0
      ],
      "type": "VEC3"
    },
    {
      "bufferView": 1,
      "byteOffset": 2097024,
      "componentType": 5126,
      "count": 65532,
      "max": [
        1.0000001192092896,
        1.0
      ],
      "min": [
        0.0,
        -0.01779809407889843
      ],
      "type": "VEC2"
    },
    {
      "bufferView": 1,
      "byteOffset": 2621280,
      "componentType": 5126,
      "count": 65532,
      "max": [
        0.0,
        0.0
      ],
      "min": [
        0.0,
        0.0
      ],
      "type": "VEC2"
    },
    {
      "bufferView": 0,
      "byteOffset": 1496052,
      "componentType": 5125,
      "count": 150288,
      "type": "SCALAR"
    },
    {
      "bufferView": 2,
      "byteOffset": 4718304,
      "componentType": 5126,
      "count": 7198,
      "max": [
        23.61310386657715,
        46.36497497558594,
        27.423063278198242
      ],
      "min": [
        -24.39956283569336,
        -21.38709259033203,
        23.558088302612305
      ],
      "type": "VEC3"
    },
    {
      "bufferView": 2,
      "byteOffset": 4804680,
      "componentType": 5126,
      "count": 7198,
      "max": [
        1.0,
        1.0,
        1.0
      ],
      "min": [
        -1.0,
        -1.0,
        -1.0
      ],
      "type": "VEC3"
    },
    {
      "bufferView": 1,
      "byteOffset": 3145536,
      "componentType": 5126,
      "count": 7198,
      "max": [
        0.5019544363021851,
        1.0
      ],
      "min": [
        0.0,
        0.0
      ],
      "type": "VEC2"
    },
    {
      "bufferView": 1,
      "byteOffset": 3203120,
      "componentType": 5126,
      "count": 7198,
      "max": [
        0.0,
        0.0
      ],
      "min": [
        0.0,
        0.0
      ],
      "type": "VEC2"
    },
    {
      "bufferView": 0,
      "byteOffset": 2097204,
      "componentType": 5125,
      "count": 14580,
      "type": "SCALAR"
    },
    {
      "bufferView": 2,
      "byteOffset": 4891056,
      "componentType": 5126,
      "count": 562,
      "max": [
        30.746082305908203,
        53.66215515136719,
        28.265748977661133
      ],
      "min": [
        -30.746074676513672,
        -53.662147521972656,
        -28.265748977661133
      ],
      "type": "VEC3"
    },
    {
      "bufferView": 2,
      "byteOffset": 4897800,
      "componentType": 5126,
      "count": 562,
      "max": [
        1.0,
        1.0,
        1.0
      ],
      "min": [
        -1.0,
        -1.0,
        -1.0
      ],
      "type": "VEC3"
    },
    {
      "bufferView": 1,
      "byteOffset": 3260704,
      "componentType": 5126,
      "count": 562,
      "max": [
        1.0000001192092896,
        1.0000001192092896
      ],
      "min": [
        -0.0016262185527011752,
        -0.2607056498527527
      ],
      "type": "VEC2"
    },
    {
      "bufferView": 1,
      "byteOffset": 3265200,
      "componentType": 5126,
      "count": 562,
      "max": [
        0.0,
        0.0
      ],
      "min": [
        0.0,
        0.0
      ],
      "type": "VEC2"
    },
    {
      "bufferView": 0,
      "byteOffset": 2155524,
      "componentType": 5125,
      "count": 1062,
      "type": "SCALAR"
    },
    {
      "bufferView": 2,
      "byteOffset": 4904544,
      "componentType": 5126,
      "count": 168,
      "max": [
        22.48444938659668,
        46.39806365966797,
        24.647342681884766
      ],
      "min": [
        -24.301713943481445,
        -46.41972732543945,
        -14.53907585144043
      ],
      "type": "VEC3"
    },
    {
      "bufferView": 2,
      "byteOffset": 4906560,
      "componentType": 5126,
      "count": 168,
      "max": [
        1.0,
        1.0,
        1.0
      ],
      "min": [
        -1.0,
        -1.0,
        -1.0
      ],
      "type": "VEC3"
    },
    {
      "bufferView": 1,
      "byteOffset": 3269696,
      "componentType": 5126,
      "count": 168,
      "max": [
        0.0,
        0.0
      ],
      "min": [
        0.0,
        0.0
      ],
      "type": "VEC2"
    },
    {
      "bufferView": 1,
      "byteOffset": 3271040,
      "componentType": 5126,
      "count": 168,
      "max": [
        0.875,
        1.0
      ],
      "min": [
        0.125,
        0.0
      ],
      "type": "VEC2"
    },
    {
      "bufferView": 0,
      "byteOffset": 2159772,
      "componentType": 5125,
      "count": 252,
      "type": "SCALAR"
    },
    {
      "bufferView": 3,
      "componentType": 5126,
      "count": 1499,
      "max": [
        50.0
      ],
      "min": [
        0.0416666679084301
      ],
      "type": "SCALAR"
    },
    {
      "bufferView": 4,
      "componentType": 5126,
      "count": 1499,
      "max": [
        8.363709862051858e-17,
        0.9999997019767761,
        8.363709862051858e-17,
        1.0
      ],
      "min": [
        -8.659560603426554e-17,
        -0.8651506900787354,
        -8.659560603426554e-17,
        -0.49969738721847534
      ],
      "type": "VEC4"
    }
  ],
  "animations": [
    {
      "channels": [
        {
          "sampler": 0,
          "target": {
            "node": 4,
            "path": "rotation"
          }
        }
      ],
      "name": "Take 001",
      "samplers": [
        {
          "input": 30,
          "interpolation": "LINEAR",
          "output": 31
        }
      ]
    }
  ],
  "asset": {
    "extras": {
      "author": "ipchilito (https://sketchfab.com/ipchilito)",
      "license": "CC-BY-4.0 (http://creativecommons.org/licenses/by/4.0/)",
      "source": "https://sketchfab.com/3d-models/server-animado-22d2d048ce9749d4ae42e3af562f9bb5",
      "title": "SERVER_ANIMADO"
    },
    "generator": "Sketchfab-16.12.0",
    "version": "2.0"
  },
  "bufferViews": [
    {
      "buffer": 0,
      "byteLength": 2160780,
      "name": "floatBufferViews",
      "target": 34963
    },
    {
      "buffer": 0,
      "byteLength": 3272384,
      "byteOffset": 2160780,
      "byteStride": 8,
      "name": "floatBufferViews",
      "target": 34962
    },
    {
      "buffer": 0,
      "byteLength": 4908576,
      "byteOffset": 5433164,
      "byteStride": 12,
      "name": "floatBufferViews",
      "target": 34962
    },
    {
      "buffer": 0,
      "byteLength": 5996,
      "byteOffset": 10341740,
      "name": "floatBufferViews"
    },
    {
      "buffer": 0,
      "byteLength": 23984,
      "byteOffset": 10347736,
      "byteStride": 16,
      "name": "floatBufferViews"
    }
  ],
  "buffers": [
    {
      "byteLength": 10371720,
      "uri": "gltf.bin"
    }
  ],
  "materials": [
    {
      "doubleSided": true,
      "name": "lambert4",
      "pbrMetallicRoughness": {
        "baseColorFactor": [
          0.657,
          0.657,
          0.657,
          1.0
        ],
        "metallicFactor": 0.0,
        "roughnessFactor": 0.6
      }
    },
    {
      "doubleSided": true,
      "name": "lambert2",
      "pbrMetallicRoughness": {
        "baseColorFactor": [
          0.5,
          0.5,
          0.5,
          1.0
        ],
        "metallicFactor": 0.0,
        "roughnessFactor": 0.6
      }
    },
    {
      "doubleSided": true,
      "name": "lambert3",
      "pbrMetallicRoughness": {
        "baseColorFactor": [
          0.0,
          0.0,
          0.0,
          1.0
        ],
        "metallicFactor": 0.0,
        "roughnessFactor": 0.6
      }
    }
  ],
  "meshes": [
    {
      "name": "RACK_lambert4_0",
      "primitives": [
        {
          "attributes": {
            "NORMAL": 1,
            "POSITION": 0,
            "TEXCOORD_0": 2,
            "TEXCOORD_1": 3
          },
          "indices": 4,
          "material": 0,
          "mode": 4
        }
      ]
    },
    {
      "name": "RACK_lambert4_0",
      "primitives": [
        {
          "attributes": {
            "NORMAL": 6,
            "POSITION": 5,
            "TEXCOORD_0": 7,
            "TEXCOORD_1": 8
          },
          "indices": 9,
          "material": 0,
          "mode": 4
        }
      ]
    },
    {
      "name": "RACK_lambert4_0",
      "primitives": [
        {
          "attributes": {
            "NORMAL": 11,
            "POSITION": 10,
            "TEXCOORD_0": 12,
            "TEXCOORD_1": 13
          },
          "indices": 14,
          "material": 0,
          "mode": 4
        }
      ]
    },
    {
      "name": "RACK_lambert4_0",
      "primitives": [
        {
          "attributes": {
            "NORMAL": 16,
            "POSITION": 15,
            "TEXCOORD_0": 17,
            "TEXCOORD_1": 18
          },
          "indices": 19,
          "material": 0,
          "mode": 4
        }
      ]
    },
    {
      "name": "RACK_lambert2_0",
      "primitives": [
        {
          "attributes": {
            "NORMAL": 21,
            "POSITION": 20,
            "TEXCOORD_0": 22,
            "TEXCOORD_1": 23
          },
          "indices": 24,
          "material": 1,
          "mode": 4
        }
      ]
    },
    {
      "name": "RACK_lambert3_0",
      "primitives": [
        {
          "attributes": {
            "NORMAL": 26,
            "POSITION": 25,
            "TEXCOORD_0": 27,
            "TEXCOORD_1": 28
          },
          "indices": 29,
          "material": 2,
          "mode": 4
        }
      ]
    }
  ],
  "nodes": [
    {
      "children": [
        1
      ],
      "matrix": [
        1.0,
        0.0,
        0.0,
        0.0,
        0.0,
        2.220446049250313e-16,
        -1.0,
        0.0,
        0.0,
        1.0,
        2.220446049250313e-16,
        0.0,
        0.0,
        0.0,
        0.0,
        1.0
      ],
      "name": "Sketchfab_model"
    },
    {
      "children": [
        2
      ],
      "matrix": [
        0.009999999776482582,
        0.0,
        0.0,
        0.0,
        0.0,
        0.0,
        0.009999999776482582,
        0.0,
        0.0,
        -0.009999999776482582,
        0.0,
        0.0,
        0.0,
        0.0,
        0.0,
        1.0
      ],
      "name": "16da8a7821d648ae8159cabbd77f56e2.fbx"
    },
    {
      "children": [
        3
      ],
      "name": "Object_2"
    },
    {
      "children": [
        4
      ],
      "name": "RootNode"
    },
    {
      "children": [
        5,
        6,
        7,
        8,
        9,
        10
      ],
      "name": "RACK",
      "translation": [
        3.8586924076080322,
        62.944725036621094,
        1.1151870489120483
      ]
    },
    {
      "mesh": 0,
      "name": "RACK_lambert4_0"
    },
    {
      "mesh": 1,
      "name": "RACK_lambert4_0"
    },
    {
      "mesh": 2,
      "name": "RACK_lambert4_0"
    },
    {
      "mesh": 3,
      "name": "RACK_lambert4_0"
    },
    {
      "mesh": 4,
      "name": "RACK_lambert2_0"
    },
    {
      "mesh": 5,
      "name": "RACK_lambert3_0"
    }
  ],
  "scene": 0,
  "scenes": [
    {
      "name": "Sketchfab_Scene",
      "nodes": [
        0
      ]
    }
  ]
}
