{
  "accessors": [
    {
      "bufferView": 2,
      "componentType": 5126,
      "count": 878,
      "max": [
        4.814369201660156,
        6.930887699127197,
        16.538009643554688
      ],
      "min": [
        -4.814369201660156,
        -6.930887699127197,
        -16.538009643554688
      ],
      "type": "VEC3"
    },
    {
      "bufferView": 2,
      "byteOffset": 10536,
      "componentType": 5126,
      "count": 878,
      "max": [
        0.9998360872268677,
        0.9998630881309509,
        0.9971117377281189
      ],
      "min": [
        -0.9987534880638123,
        -0.9891912937164307,
        -0.9997017979621887
      ],
      "type": "VEC3"
    },
    {
      "bufferView": 1,
      "componentType": 5126,
      "count": 878,
      "max": [
        1.0,
        0.926907479763031
      ],
      "min": [
        0.0,
        0.0
      ],
      "type": "VEC2"
    },
    {
      "bufferView": 2,
      "byteOffset": 21072,
      "componentType": 5126,
      "count": 878,
      "max": [
        0.0,
        2.214353084564209,
        0.0
      ],
      "min": [
        0.0,
        -2.2143521308898926,
        0.0
      ],
      "type": "VEC3"
    },
    {
      "bufferView": 2,
      "byteOffset": 31608,
      "componentType": 5126,
      "count": 878,
      "max": [
        0.24693065881729126,
        0.1648416817188263,
        0.277991384267807
      ],
      "min": [
        -0.12897729873657227,
        -0.19174811244010925,
        -0.25542688369750977
      ],
      "type": "VEC3"
    },
    {
      "bufferView": 0,
      "componentType": 5125,
      "count": 4932,
      "type": "SCALAR"
    },
    {
      "bufferView": 2,
      "byteOffset": 42144,
      "componentType": 5126,
      "count": 1649,
      "max": [
        34.968902587890625,
        35.47492218017578,
        35.04899597167969
      ],
      "min": [
        -34.968902587890625,
        -35.47492218017578,
        -35.04899597167969
      ],
      "type": "VEC3"
    },
    {
      "bufferView": 2,
      "byteOffset": 61932,
      "componentType": 5126,
      "count": 1649,
      "max": [
        1.0,
        1.0,
        1.0
      ],
      "min": [
        -1.0,
        -1.0,
        -1.0
      ],
      "type": "VEC3"
    },
    {
      "bufferView": 1,
      "byteOffset": 7024,
      "componentType": 5126,
      "count": 1649,
      "max": [
        1.0,
        0.6654236316680908
      ],
      "min": [
        0.0,
        0.0
      ],
      "type": "VEC2"
    },
    {
      "bufferView": 2,
      "byteOffset": 81720,
      "componentType": 5126,
      "count": 1649,
      "max": [
        1.3787956237792969,
        3.3733654022216797,
        0.0
      ],
      "min": [
        -0.1536884307861328,
        -3.0125837326049805,
        0.0
      ],
      "type": "VEC3"
    },
    {
      "bufferView": 2,
      "byteOffset": 101508,
      "componentType": 5126,
      "count": 1649,
      "max": [
        0.4646944999694824,
        0.689956784248352,
        0.6962252855300903
      ],
      "min": [
        -0.6211417317390442,
        -0.6069238781929016,
        -0.696223258972168
      ],
      "type": "VEC3"
    },
    {
      "bufferView": 0,
      "byteOffset": 19728,
      "componentType": 5125,
      "count": 9474,
      "type": "SCALAR"
    },
    {
      "bufferView": 2,
      "byteOffset": 121296,
      "componentType": 5126,
      "count": 105,
      "max": [
        33.1300163269043,
        -6.528385162353516,
        22.554244995117188
      ],
      "min": [
        22.815107345581055,
        -15.490503311157227,
        -22.554244995117188
      ],
      "type": "VEC3"
    },
    {
      "bufferView": 2,
      "byteOffset": 122556,
      "componentType": 5126,
      "count": 105,
      "max": [
        0.9517785310745239,
        -0.29048579931259155,
        0.6999175548553467
      ],
      "min": [
        -0.18077418208122253,
        -0.9845848679542542,
        -0.6999127864837646
      ],
      "type": "VEC3"
    },
    {
      "bufferView": 1,
      "byteOffset": 20216,
      "componentType": 5126,
      "count": 105,
      "max": [
        0.5377966165542603,
        0.30715635418891907
      ],
      "min": [
        0.32605940103530884,
        0.24758781492710114
      ],
      "type": "VEC2"
    },
    {
      "bufferView": 2,
      "byteOffset": 123816,
      "componentType": 5126,
      "count": 105,
      "max": [
        1.261373519897461,
        1.8037834167480469,
        0.0
      ],
      "min": [
        -0.14541053771972656,
        -2.8495473861694336,
        0.0
      ],
      "type": "VEC3"
    },
    {
      "bufferView": 2,
      "byteOffset": 125076,
      "componentType": 5126,
      "count": 105,
      "max": [
        0.532685399055481,
        0.14472711086273193,
        0.5695536136627197
      ],
      "min": [
        -0.6211417317390442,
        -0.5016440153121948,
        -0.5695531368255615
      ],
      "type": "VEC3"
    },
    {
      "bufferView": 0,
      "byteOffset": 57624,
      "componentType": 5125,
      "count": 444,
      "type": "SCALAR"
    },
    {
      "bufferView": 2,
      "byteOffset": 126336,
      "componentType": 5126,
      "count": 99,
      "max": [
        28.821138381958008,
        -10.94686508178711,
        22.071029663085938
      ],
      "min": [
        20.425336837768555,
        -28.099157333374023,
        -22.071029663085938
      ],
      "type": "VEC3"
    },
    {
      "bufferView": 2,
      "byteOffset": 127524,
      "componentType": 5126,
      "count": 99,
      "max": [
        0.9984563589096069,
        0.26206690073013306,
        0.9510542154312134
      ],
      "min": [
        0.01735423132777214,
        -0.9360314011573792,
        -0.9510519504547119
      ],
      "type": "VEC3"
    },
    {
      "bufferView": 1,
      "byteOffset": 21056,
      "componentType": 5126,
      "count": 99,
      "max": [
        0.5392767786979675,
        0.28161177039146423
      ],
      "min": [
        0.32871246337890625,
        0.17183664441108704
      ],
      "type": "VEC2"
    },
    {
      "bufferView": 2,
      "byteOffset": 128712,
      "componentType": 5126,
      "count": 99,
      "max": [
        1.3787956237792969,
        3.3733654022216797,
        0.0
      ],
      "min": [
        0.0,
        0.0,
        0.0
      ],
      "type": "VEC3"
    },
    {
      "bufferView": 2,
      "byteOffset": 129900,
      "componentType": 5126,
      "count": 99,
      "max": [
        0.5923384428024292,
        0.6140389442443848,
        0.5695536136627197
      ],
      "min": [
        -0.2531258463859558,
        -0.3909003436565399,
        -0.5695531368255615
      ],
      "type": "VEC3"
    },
    {
      "bufferView": 0,
      "byteOffset": 59400,
      "componentType": 5125,
      "count": 354,
      "type": "SCALAR"
    },
    {
      "bufferView": 3,
      "componentType": 5126,
      "count": 63,
      "max": [
        2.0833332538604736
      ],
      "min": [
        0.0416666679084301
      ],
      "type": "SCALAR"
    },
    {
      "bufferView": 4,
      "componentType": 5126,
      "count": 63,
      "max": [
        31.014516830444336,
        8.750142097473145,
        0.170654296875
      ],
      "min": [
        30.69839859008789,
        6.678526401519775,
        0.170654296875
      ],
      "type": "VEC3"
    },
    {
      "bufferView": 3,
      "byteOffset": 252,
      "componentType": 5126,
      "count": 23,
      "max": [
        2.0833332538604736
      ],
      "min": [
        0.0416666679084301
      ],
      "type": "SCALAR"
    },
    {
      "bufferView": 5,
      "componentType": 5126,
      "count": 23,
      "max": [
        0.0,
        0.0,
        1.3877787807814457e-17,
        1.0
      ],
      "min": [
        0.0,
        0.0,
        -1.3877787807814457e-17,
        1.0
      ],
      "type": "VEC4"
    },
    {
      "bufferView": 3,
      "byteOffset": 344,
      "componentType": 5126,
      "count": 23,
      "max": [
        2.0833332538604736
      ],
      "min": [
        0.0416666679084301
      ],
      "type": "SCALAR"
    },
    {
      "bufferView": 5,
      "byteOffset": 368,
      "componentType": 5126,
      "count": 23,
      "max": [
        0.0,
        0.0,
        1.3877787807814457e-17,
        1.0
      ],
      "min": [
        0.0,
        0.0,
        -1.3877787807814457e-17,
        1.0
      ],
      "type": "VEC4"
    },
    {
      "bufferView": 3,
      "byteOffset": 436,
      "componentType": 5126,
      "count": 100,
      "max": [
        2.5
      ],
      "min": [
        0.0416666679084301
      ],
      "type": "SCALAR"
    },
    {
      "bufferView": 4,
      "byteOffset": 756,
      "componentType": 5126,
      "count": 100,
      "max": [
        -0.2719317376613617,
        15.494346618652344,
        9.68550807556312e-07
      ],
      "min": [
        -0.2719317376613617,
        1.1444091796875e-05,
        9.68550807556312e-07
      ],
      "type": "VEC3"
    },
    {
      "bufferView": 3,
      "byteOffset": 836,
      "componentType": 5126,
      "count": 100,
      "max": [
        2.5
      ],
      "min": [
        0.0416666679084301
      ],
      "type": "SCALAR"
    },
    {
      "bufferView": 5,
      "byteOffset": 736,
      "componentType": 5126,
      "count": 100,
      "max": [
        0.0,
        0.0,
        0.0844012126326561,
        1.0
      ],
      "min": [
        0.0,
        0.0,
        0.0,
        0.996431827545166
      ],
      "type": "VEC4"
    },
    {
      "bufferView": 3,
      "byteOffset": 1236,
      "componentType": 5126,
      "count": 63,
      "max": [
        2.1083333492279053
      ],
      "min": [
        0.0416666679084301
      ],
      "type": "SCALAR"
    },
    {
      "bufferView": 3,
      "byteOffset": 1488,
      "componentType": 5126,
      "count": 63,
      "max": [
        0.999858021736145
      ],
      "min": [
        0.0
      ],
      "type": "SCALAR"
    },
    {
      "bufferView": 3,
      "byteOffset": 1740,
      "componentType": 5126,
      "count": 63,
      "max": [
        2.1083333492279053
      ],
      "min": [
        0.0416666679084301
      ],
      "type": "SCALAR"
    },
    {
      "bufferView": 3,
      "byteOffset": 1992,
      "componentType": 5126,
      "count": 63,
      "max": [
        0.999858021736145
      ],
      "min": [
        0.0
      ],
      "type": "SCALAR"
    },
    {
      "bufferView": 3,
      "byteOffset": 2244,
      "componentType": 5126,
      "count": 63,
      "max": [
        2.1083333492279053
      ],
      "min": [
        0.0416666679084301
      ],
      "type": "SCALAR"
    },
    {
      "bufferView": 3,
      "byteOffset": 2496,
      "componentType": 5126,
      "count": 63,
      "max": [
        0.999858021736145
      ],
      "min": [
        0.0
      ],
      "type": "SCALAR"
    },
    {
      "bufferView": 3,
      "byteOffset": 2748,
      "componentType": 5126,
      "count": 63,
      "max": [
        2.1083333492279053
      ],
      "min": [
        0.0416666679084301
      ],
      "type": "SCALAR"
    },
    {
      "bufferView": 3,
      "byteOffset": 3000,
      "componentType": 5126,
      "count": 63,
      "max": [
        0.999858021736145
      ],
      "min": [
        0.0
      ],
      "type": "SCALAR"
    }
  ],
  "animations": [
    {
      "channels": [
        {
          "sampler": 0,
          "target": {
            "node": 9,
            "path": "translation"
          }
        },
        {
          "sampler": 1,
          "target": {
            "node": 9,
            "path": "rotation"
          }
        },
        {
          "sampler": 2,
          "target": {
            "node": 11,
            "path": "rotation"
          }
        },
        {
          "sampler": 3,
          "target": {
            "node": 8,
            "path": "translation"
          }
        },
        {
          "sampler": 4,
          "target": {
            "node": 8,
            "path": "rotation"
          }
        },
        {
          "sampler": 5,
          "target": {
            "node": 10,
            "path": "weights"
          }
        },
        {
          "sampler": 6,
          "target": {
            "node": 12,
            "path": "weights"
          }
        },
        {
          "sampler": 7,
          "target": {
            "node": 13,
            "path": "weights"
          }
        },
        {
          "sampler": 8,
          "target": {
            "node": 14,
            "path": "weights"
          }
        }
      ],
      "name": "Take 001",
      "samplers": [
        {
          "input": 24,
          "interpolation": "LINEAR",
          "output": 25
        },
        {
          "input": 26,
          "interpolation": "LINEAR",
          "output": 27
        },
        {
          "input": 28,
          "interpolation": "LINEAR",
          "output": 29
        },
        {
          "input": 30,
          "interpolation": "LINEAR",
          "output": 31
        },
        {
          "input": 32,
          "interpolation": "LINEAR",
          "output": 33
        },
        {
          "input": 34,
          "interpolation": "LINEAR",
          "output": 35
        },
        {
          "input": 36,
          "interpolation": "LINEAR",
          "output": 37
        },
        {
          "input": 38,
          "interpolation": "LINEAR",
          "output": 39
        },
        {
          "input": 40,
          "interpolation": "LINEAR",
          "output": 41
        }
      ]
    }
  ],
  "asset": {
    "extras": {
      "author": "JadeBarbiier (https://sketchfab.com/JadeBarbiier)",
      "license": "CC-BY-4.0 (http://creativecommons.org/licenses/by/4.0/)",
      "source": "https://sketchfab.com/3d-models/emoji-smiling-2-da1d616bba83471e87da7364e3304287",
      "title": "Emoji_Smiling_2"
    },
    "generator": "Sketchfab-12.66.0",
    "version": "2.0"
  },
  "bufferViews": [
    {
      "buffer": 0,
      "byteLength": 60816,
      "name": "floatBufferViews",
      "target": 34963
    },
    {
      "buffer": 0,
      "byteLength": 21848,
      "byteOffset": 60816,
      "byteStride": 8,
      "name": "floatBufferViews",
      "target": 34962
    },
    {
      "buffer": 0,
      "byteLength": 131088,
      "byteOffset": 82664,
      "byteStride": 12,
      "name": "floatBufferViews",
      "target": 34962
    },
    {
      "buffer": 0,
      "byteLength": 3252,
      "byteOffset": 213752,
      "name": "floatBufferViews"
    },
    {
      "buffer": 0,
      "byteLength": 1956,
      "byteOffset": 217004,
      "byteStride": 12,
      "name": "floatBufferViews"
    },
    {
      "buffer": 0,
      "byteLength": 2336,
      "byteOffset": 218960,
      "byteStride": 16,
      "name": "floatBufferViews"
    }
  ],
  "buffers": [
    {
      "byteLength": 221296,
      "uri": "scene.bin"
    }
  ],
  "extensionsUsed": [
    "KHR_texture_transform"
  ],
  "images": [
    {
      "uri": "textures/Brown_baseColor.png"
    },
    {
      "uri": "textures/Skin_baseColor.png"
    }
  ],
  "materials": [
    {
      "doubleSided": true,
      "name": "Brown",
      "pbrMetallicRoughness": {
        "baseColorTexture": {
          "extensions": {
            "KHR_texture_transform": {
              "offset": [
                0.0681665239916942,
                0.028710682611127414
              ],
              "rotation": -6.283185307179586,
              "scale": [
                0.9995655252411216,
                1
              ]
            }
          },
          "index": 0
        },
        "metallicFactor": 0.0,
        "roughnessFactor": 0.20802734566149297
      }
    },
    {
      "doubleSided": true,
      "name": "Skin",
      "pbrMetallicRoughness": {
        "baseColorTexture": {
          "index": 1
        },
        "metallicFactor": 0.0,
        "roughnessFactor": 0.07925161837505172
      }
    },
    {
      "doubleSided": true,
      "name": "Teeth",
      "pbrMetallicRoughness": {
        "metallicFactor": 0.0
      }
    },
    {
      "doubleSided": true,
      "name": "Mouth",
      "pbrMetallicRoughness": {
        "metallicFactor": 0.0
      }
    }
  ],
  "meshes": [
    {
      "name": "0",
      "primitives": [
        {
          "attributes": {
            "NORMAL": 1,
            "POSITION": 0,
            "TEXCOORD_0": 2
          },
          "indices": 5,
          "material": 0,
          "mode": 4,
          "targets": [
            {
              "NORMAL": 4,
              "POSITION": 3
            }
          ]
        }
      ],
      "weights": [
        0.0
      ]
    },
    {
      "name": "1",
      "primitives": [
        {
          "attributes": {
            "NORMAL": 7,
            "POSITION": 6,
            "TEXCOORD_0": 8
          },
          "indices": 11,
          "material": 1,
          "mode": 4,
          "targets": [
            {
              "NORMAL": 10,
              "POSITION": 9
            }
          ]
        }
      ],
      "weights": [
        0.0
      ]
    },
    {
      "name": "2",
      "primitives": [
        {
          "attributes": {
            "NORMAL": 13,
            "POSITION": 12,
            "TEXCOORD_0": 14
          },
          "indices": 17,
          "material": 2,
          "mode": 4,
          "targets": [
            {
              "NORMAL": 16,
              "POSITION": 15
            }
          ]
        }
      ],
      "weights": [
        0.0
      ]
    },
    {
      "name": "3",
      "primitives": [
        {
          "attributes": {
            "NORMAL": 19,
            "POSITION": 18,
            "TEXCOORD_0": 20
          },
          "indices": 23,
          "material": 3,
          "mode": 4,
          "targets": [
            {
              "NORMAL": 22,
              "POSITION": 21
            }
          ]
        }
      ],
      "weights": [
        0.0
      ]
    }
  ],
  "nodes": [
    {
      "children": [
        1
      ],
      "matrix": [
        1.0,
        0.0,
        0.0,
        0.0,
        0.0,
        2.220446049250313e-16,
        -1.0,
        0.0,
        0.0,
        1.0,
        2.220446049250313e-16,
        0.0,
        0.0,
        0.0,
        0.0,
        1.0
      ],
      "name": "Sketchfab_model"
    },
    {
      "children": [
        2
      ],
      "matrix": [
        0.009999999776482582,
        0.0,
        0.0,
        0.0,
        0.0,
        0.0,
        0.009999999776482582,
        0.0,
        0.0,
        -0.009999999776482582,
        0.0,
        0.0,
        0.0,
        0.0,
        0.0,
        1.0
      ],
      "name": "4469337b0ba24cda97ee12f601d17502.fbx"
    },
    {
      "children": [
        3
      ],
      "name": "Object_2"
    },
    {
      "children": [
        4
      ],
      "name": "RootNode"
    },
    {
      "children": [
        5,
        6,
        7,
        8
      ],
      "name": "Awkward_005",
      "translation": [
        0.0,
        0.0,
        -9.68550807556312e-07
      ]
    },
    {
      "name": "Head1",
      "translation": [
        -0.27193498611450195,
        0.0,
        9.68550807556312e-07
      ]
    },
    {
      "name": "pSphere21",
      "translation": [
        27.963050842285156,
        29.98140525817871,
        -24.147626876831055
      ]
    },
    {
      "name": "Awkward_005_Eyes_L1",
      "translation": [
        30.426467895507813,
        6.678537845611572,
        0.1706552654504776
      ]
    },
    {
      "children": [
        9,
        11,
        15
      ],
      "name": "group1",
      "translation": [
        -0.2719317376613617,
        1.1444091796875e-05,
        9.68550807556312e-07
      ]
    },
    {
      "children": [
        10
      ],
      "name": "Awkward_005_Eyes_L2",
      "translation": [
        30.69839859008789,
        6.678526401519775,
        0.170654296875
      ]
    },
    {
      "mesh": 0,
      "name": "0"
    },
    {
      "children": [
        12,
        13,
        14
      ],
      "name": "Head2",
      "translation": [
        -3.248453140258789e-06,
        -1.1444091796875e-05,
        0.0
      ]
    },
    {
      "mesh": 1,
      "name": "1"
    },
    {
      "mesh": 2,
      "name": "2"
    },
    {
      "mesh": 3,
      "name": "3"
    },
    {
      "name": "Blendshape",
      "translation": [
        0.15058192610740662,
        -1.1444091796875e-05,
        -247.7311248779297
      ]
    }
  ],
  "samplers": [
    {
      "magFilter": 9729,
      "minFilter": 9987,
      "wrapS": 10497,
      "wrapT": 10497
    }
  ],
  "scene": 0,
  "scenes": [
    {
      "name": "Sketchfab_Scene",
      "nodes": [
        0
      ]
    }
  ],
  "textures": [
    {
      "sampler": 0,
      "source": 0
    },
    {
      "sampler": 0,
      "source": 1
    }
  ]
}
