{
  "accessors": [
    {
      "bufferView": 2,
      "componentType": 5126,
      "count": 2304,
      "max": [
        12.000007629394531,
        3.930163621902466,
        64.34379577636719
      ],
      "min": [
        -11.999992370605469,
        -3.9301328659057617,
        -64.34379577636719
      ],
      "type": "VEC3"
    },
    {
      "bufferView": 2,
      "byteOffset": 27648,
      "componentType": 5126,
      "count": 2304,
      "type": "VEC3"
    },
    {
      "bufferView": 1,
      "componentType": 5126,
      "count": 2304,
      "type": "VEC2"
    },
    {
      "bufferView": 0,
      "componentType": 5125,
      "count": 12864,
      "type": "SCALAR"
    },
    {
      "bufferView": 2,
      "byteOffset": 55296,
      "componentType": 5126,
      "count": 2304,
      "max": [
        12.0,
        3.930163621902466,
        64.34379577636719
      ],
      "min": [
        -12.0,
        -3.9301328659057617,
        -64.34379577636719
      ],
      "type": "VEC3"
    },
    {
      "bufferView": 2,
      "byteOffset": 82944,
      "componentType": 5126,
      "count": 2304,
      "type": "VEC3"
    },
    {
      "bufferView": 1,
      "byteOffset": 18432,
      "componentType": 5126,
      "count": 2304,
      "type": "VEC2"
    },
    {
      "bufferView": 0,
      "byteOffset": 51456,
      "componentType": 5125,
      "count": 12864,
      "type": "SCALAR"
    },
    {
      "bufferView": 2,
      "byteOffset": 110592,
      "componentType": 5126,
      "count": 2304,
      "max": [
        12.0,
        3.930163621902466,
        64.34379577636719
      ],
      "min": [
        -12.0,
        -3.9301328659057617,
        -64.34379577636719
      ],
      "type": "VEC3"
    },
    {
      "bufferView": 2,
      "byteOffset": 138240,
      "componentType": 5126,
      "count": 2304,
      "type": "VEC3"
    },
    {
      "bufferView": 1,
      "byteOffset": 36864,
      "componentType": 5126,
      "count": 2304,
      "type": "VEC2"
    },
    {
      "bufferView": 0,
      "byteOffset": 102912,
      "componentType": 5125,
      "count": 12864,
      "type": "SCALAR"
    },
    {
      "bufferView": 2,
      "byteOffset": 165888,
      "componentType": 5126,
      "count": 2304,
      "max": [
        12.0,
        3.930163621902466,
        64.34379577636719
      ],
      "min": [
        -12.0,
        -3.9301328659057617,
        -64.34379577636719
      ],
      "type": "VEC3"
    },
    {
      "bufferView": 2,
      "byteOffset": 193536,
      "componentType": 5126,
      "count": 2304,
      "type": "VEC3"
    },
    {
      "bufferView": 1,
      "byteOffset": 55296,
      "componentType": 5126,
      "count": 2304,
      "type": "VEC2"
    },
    {
      "bufferView": 0,
      "byteOffset": 154368,
      "componentType": 5125,
      "count": 12864,
      "type": "SCALAR"
    },
    {
      "bufferView": 2,
      "byteOffset": 221184,
      "componentType": 5126,
      "count": 2304,
      "max": [
        12.0,
        3.930163621902466,
        64.34379577636719
      ],
      "min": [
        -12.0,
        -3.9301328659057617,
        -64.34379577636719
      ],
      "type": "VEC3"
    },
    {
      "bufferView": 2,
      "byteOffset": 248832,
      "componentType": 5126,
      "count": 2304,
      "type": "VEC3"
    },
    {
      "bufferView": 1,
      "byteOffset": 73728,
      "componentType": 5126,
      "count": 2304,
      "type": "VEC2"
    },
    {
      "bufferView": 0,
      "byteOffset": 205824,
      "componentType": 5125,
      "count": 12864,
      "type": "SCALAR"
    },
    {
      "bufferView": 2,
      "byteOffset": 276480,
      "componentType": 5126,
      "count": 2304,
      "max": [
        12.0,
        3.930163621902466,
        64.34379577636719
      ],
      "min": [
        -12.0,
        -3.9301328659057617,
        -64.34379577636719
      ],
      "type": "VEC3"
    },
    {
      "bufferView": 2,
      "byteOffset": 304128,
      "componentType": 5126,
      "count": 2304,
      "type": "VEC3"
    },
    {
      "bufferView": 1,
      "byteOffset": 92160,
      "componentType": 5126,
      "count": 2304,
      "type": "VEC2"
    },
    {
      "bufferView": 0,
      "byteOffset": 257280,
      "componentType": 5125,
      "count": 12864,
      "type": "SCALAR"
    },
    {
      "bufferView": 2,
      "byteOffset": 331776,
      "componentType": 5126,
      "count": 2304,
      "max": [
        12.0,
        3.930163621902466,
        64.34379577636719
      ],
      "min": [
        -12.0,
        -3.9301328659057617,
        -64.34379577636719
      ],
      "type": "VEC3"
    },
    {
      "bufferView": 2,
      "byteOffset": 359424,
      "componentType": 5126,
      "count": 2304,
      "type": "VEC3"
    },
    {
      "bufferView": 1,
      "byteOffset": 110592,
      "componentType": 5126,
      "count": 2304,
      "type": "VEC2"
    },
    {
      "bufferView": 0,
      "byteOffset": 308736,
      "componentType": 5125,
      "count": 12864,
      "type": "SCALAR"
    }
  ],
  "asset": {
    "generator": "fab-model-conversion",
    "version": "2.0"
  },
  "bufferViews": [
    {
      "buffer": 0,
      "byteLength": 360192,
      "target": 34963
    },
    {
      "buffer": 0,
      "byteLength": 129024,
      "byteOffset": 360192,
      "byteStride": 8,
      "target": 34962
    },
    {
      "buffer": 0,
      "byteLength": 387072,
      "byteOffset": 489216,
      "byteStride": 12,
      "target": 34962
    }
  ],
  "buffers": [
    {
      "byteLength": 876288,
      "uri": "scene.bin"
    }
  ],
  "extensionsUsed": [
    "KHR_materials_emissive_strength"
  ],
  "images": [
    {
      "uri": "textures/V5_Icon1_baseColor.png"
    },
    {
      "uri": "textures/V5_Icon1_emissive.jpeg"
    },
    {
      "uri": "textures/V5_Icon2_baseColor.png"
    },
    {
      "uri": "textures/V5_Icon3_baseColor.png"
    },
    {
      "uri": "textures/V5_Icon4_baseColor.png"
    },
    {
      "uri": "textures/V5_Icon5_baseColor.png"
    },
    {
      "uri": "textures/V5_Icon6_baseColor.png"
    },
    {
      "uri": "textures/V5_Icon7_baseColor.png"
    }
  ],
  "materials": [
    {
      "doubleSided": true,
      "emissiveTexture": {
        "index": 1
      },
      "name": "V5_Icon1",
      "pbrMetallicRoughness": {
        "baseColorTexture": {
          "index": 0
        },
        "metallicFactor": 0.0,
        "roughnessFactor": 0.0
      }
    },
    {
      "doubleSided": true,
      "extensions": {
        "KHR_materials_emissive_strength": {
          "emissiveStrength": 10
        }
      },
      "name": "V5_Icon2",
      "pbrMetallicRoughness": {
        "baseColorTexture": {
          "index": 2
        },
        "metallicFactor": 0.0,
        "roughnessFactor": 0.0
      }
    },
    {
      "doubleSided": true,
      "extensions": {
        "KHR_materials_emissive_strength": {
          "emissiveStrength": 10
        }
      },
      "name": "V5_Icon3",
      "pbrMetallicRoughness": {
        "baseColorTexture": {
          "index": 3
        },
        "metallicFactor": 0.0,
        "roughnessFactor": 0.0
      }
    },
    {
      "doubleSided": true,
      "extensions": {
        "KHR_materials_emissive_strength": {
          "emissiveStrength": 10
        }
      },
      "name": "V5_Icon4",
      "pbrMetallicRoughness": {
        "baseColorTexture": {
          "index": 4
        },
        "metallicFactor": 0.0,
        "roughnessFactor": 0.0
      }
    },
    {
      "doubleSided": true,
      "extensions": {
        "KHR_materials_emissive_strength": {
          "emissiveStrength": 10
        }
      },
      "name": "V5_Icon5",
      "pbrMetallicRoughness": {
        "baseColorTexture": {
          "index": 5
        },
        "metallicFactor": 0.0,
        "roughnessFactor": 0.0
      }
    },
    {
      "doubleSided": true,
      "extensions": {
        "KHR_materials_emissive_strength": {
          "emissiveStrength": 10
        }
      },
      "name": "V5_Icon6",
      "pbrMetallicRoughness": {
        "baseColorTexture": {
          "index": 6
        },
        "metallicFactor": 0.0,
        "roughnessFactor": 0.0
      }
    },
    {
      "doubleSided": true,
      "extensions": {
        "KHR_materials_emissive_strength": {
          "emissiveStrength": 10
        }
      },
      "name": "V5_Icon7",
      "pbrMetallicRoughness": {
        "baseColorTexture": {
          "index": 7
        },
        "metallicFactor": 0.0,
        "roughnessFactor": 0.0
      }
    }
  ],
  "meshes": [
    {
      "name": "V5_Icon1_V5_Icon1_0",
      "primitives": [
        {
          "attributes": {
            "NORMAL": 1,
            "POSITION": 0,
            "TEXCOORD_0": 2
          },
          "indices": 3,
          "material": 0,
          "mode": 4
        }
      ]
    },
    {
      "name": "V5_Icon2_V5_Icon2_0",
      "primitives": [
        {
          "attributes": {
            "NORMAL": 5,
            "POSITION": 4,
            "TEXCOORD_0": 6
          },
          "indices": 7,
          "material": 1,
          "mode": 4
        }
      ]
    },
    {
      "name": "V5_Icon3_V5_Icon3_0",
      "primitives": [
        {
          "attributes": {
            "NORMAL": 9,
            "POSITION": 8,
            "TEXCOORD_0": 10
          },
          "indices": 11,
          "material": 2,
          "mode": 4
        }
      ]
    },
    {
      "name": "V5_Icon4_V5_Icon4_0",
      "primitives": [
        {
          "attributes": {
            "NORMAL": 13,
            "POSITION": 12,
            "TEXCOORD_0": 14
          },
          "indices": 15,
          "material": 3,
          "mode": 4
        }
      ]
    },
    {
      "name": "V5_Icon5_V5_Icon5_0",
      "primitives": [
        {
          "attributes": {
            "NORMAL": 17,
            "POSITION": 16,
            "TEXCOORD_0": 18
          },
          "indices": 19,
          "material": 4,
          "mode": 4
        }
      ]
    },
    {
      "name": "V5_Icon6_V5_Icon6_0",
      "primitives": [
        {
          "attributes": {
            "NORMAL": 21,
            "POSITION": 20,
            "TEXCOORD_0": 22
          },
          "indices": 23,
          "material": 5,
          "mode": 4
        }
      ]
    },
    {
      "name": "V5_Icon7_V5_Icon7_0",
      "primitives": [
        {
          "attributes": {
            "NORMAL": 25,
            "POSITION": 24,
            "TEXCOORD_0": 26
          },
          "indices": 27,
          "material": 6,
          "mode": 4
        }
      ]
    }
  ],
  "nodes": [
    {
      "children": [
        1
      ],
      "matrix": [
        1.0,
        0.0,
        0.0,
        0.0,
        0.0,
        2.220446049250313e-16,
        -1.0,
        0.0,
        0.0,
        1.0,
        2.220446049250313e-16,
        0.0,
        0.0,
        0.0,
        0.0,
        1.0
      ],
      "name": "Sketchfab_model"
    },
    {
      "children": [
        2
      ],
      "matrix": [
        0.02539999969303608,
        0.0,
        0.0,
        0.0,
        0.0,
        0.0,
        0.02539999969303608,
        0.0,
        0.0,
        -0.02539999969303608,
        0.0,
        0.0,
        0.0,
        0.0,
        0.0,
        1.0
      ],
      "name": "V5_Icon_Socical.FBX"
    },
    {
      "children": [
        3,
        6,
        9,
        12,
        15,
        18,
        21
      ],
      "name": "RootNode"
    },
    {
      "children": [
        4
      ],
      "matrix": [
        1.0,
        0.0,
        0.0,
        0.0,
        0.0,
        0.999999999999999,
        4.371138895287174e-08,
        0.0,
        0.0,
        -4.371138895287174e-08,
        0.999999999999999,
        0.0,
        -118.25981903076172,
        64.35501098632813,
        1.7046090364456177,
        1.0
      ],
      "name": "V5_Icon1"
    },
    {
      "children": [
        5
      ],
      "matrix": [
        1.0,
        0.0,
        0.0,
        0.0,
        0.0,
        6.123233995736766e-17,
        -1.0,
        0.0,
        -0.0,
        1.0,
        6.123233995736766e-17,
        0.0,
        -7.62939453125e-06,
        6.7219363755755e-13,
        1.53779983520508e-05,
        1.0
      ],
      "name": "Object_4"
    },
    {
      "mesh": 0,
      "name": "V5_Icon1_V5_Icon1_0"
    },
    {
      "children": [
        7
      ],
      "matrix": [
        1.0,
        0.0,
        0.0,
        0.0,
        0.0,
        0.999999999999999,
        4.371138895287174e-08,
        0.0,
        0.0,
        -4.371138895287174e-08,
        0.999999999999999,
        0.0,
        -79.22406005859375,
        64.35501098632813,
        1.7046090364456177,
        1.0
      ],
      "name": "V5_Icon2"
    },
    {
      "children": [
        8
      ],
      "matrix": [
        1.0,
        0.0,
        0.0,
        0.0,
        0.0,
        6.123233995736766e-17,
        -1.0,
        0.0,
        -0.0,
        1.0,
        6.123233995736766e-17,
        0.0,
        0.0,
        6.7219363755755e-13,
        1.53779983520508e-05,
        1.0
      ],
      "name": "Object_7"
    },
    {
      "mesh": 1,
      "name": "V5_Icon2_V5_Icon2_0"
    },
    {
      "children": [
        10
      ],
      "matrix": [
        1.0,
        0.0,
        0.0,
        0.0,
        0.0,
        0.999999999999999,
        4.371138895287174e-08,
        0.0,
        0.0,
        -4.371138895287174e-08,
        0.999999999999999,
        0.0,
        -37.51399230957031,
        64.35501098632813,
        1.7046090364456177,
        1.0
      ],
      "name": "V5_Icon3"
    },
    {
      "children": [
        11
      ],
      "matrix": [
        1.0,
        0.0,
        0.0,
        0.0,
        0.0,
        6.123233995736766e-17,
        -1.0,
        0.0,
        -0.0,
        1.0,
        6.123233995736766e-17,
        0.0,
        0.0,
        6.7219363755755e-13,
        1.53779983520508e-05,
        1.0
      ],
      "name": "Object_10"
    },
    {
      "mesh": 2,
      "name": "V5_Icon3_V5_Icon3_0"
    },
    {
      "children": [
        13
      ],
      "matrix": [
        1.0,
        0.0,
        0.0,
        0.0,
        0.0,
        0.999999999999999,
        4.371138895287174e-08,
        0.0,
        0.0,
        -4.371138895287174e-08,
        0.999999999999999,
        0.0,
        -0.2803955078125,
        64.35501098632813,
        1.7046090364456177,
        1.0
      ],
      "name": "V5_Icon4"
    },
    {
      "children": [
        14
      ],
      "matrix": [
        1.0,
        0.0,
        0.0,
        0.0,
        0.0,
        6.123233995736766e-17,
        -1.0,
        0.0,
        -0.0,
        1.0,
        6.123233995736766e-17,
        0.0,
        0.0,
        6.7219363755755e-13,
        1.53779983520508e-05,
        1.0
      ],
      "name": "Object_13"
    },
    {
      "mesh": 3,
      "name": "V5_Icon4_V5_Icon4_0"
    },
    {
      "children": [
        16
      ],
      "matrix": [
        1.0,
        0.0,
        0.0,
        0.0,
        0.0,
        0.999999999999999,
        4.371138895287174e-08,
        0.0,
        0.0,
        -4.371138895287174e-08,
        0.999999999999999,
        0.0,
        34.79014587402344,
        64.35501098632813,
        1.7046090364456177,
        1.0
      ],
      "name": "V5_Icon5"
    },
    {
      "children": [
        17
      ],
      "matrix": [
        1.0,
        0.0,
        0.0,
        0.0,
        0.0,
        6.123233995736766e-17,
        -1.0,
        0.0,
        -0.0,
        1.0,
        6.123233995736766e-17,
        0.0,
        0.0,
        6.7219363755755e-13,
        1.53779983520508e-05,
        1.0
      ],
      "name": "Object_16"
    },
    {
      "mesh": 4,
      "name": "V5_Icon5_V5_Icon5_0"
    },
    {
      "children": [
        19
      ],
      "matrix": [
        1.0,
        0.0,
        0.0,
        0.0,
        0.0,
        0.999999999999999,
        4.371138895287174e-08,
        0.0,
        0.0,
        -4.371138895287174e-08,
        0.999999999999999,
        0.0,
        72.76821899414063,
        64.35501098632813,
        1.7046090364456177,
        1.0
      ],
      "name": "V5_Icon6"
    },
    {
      "children": [
        20
      ],
      "matrix": [
        1.0,
        0.0,
        0.0,
        0.0,
        0.0,
        6.123233995736766e-17,
        -1.0,
        0.0,
        -0.0,
        1.0,
        6.123233995736766e-17,
        0.0,
        0.0,
        6.7219363755755e-13,
        1.53779983520508e-05,
        1.0
      ],
      "name": "Object_19"
    },
    {
      "mesh": 5,
      "name": "V5_Icon6_V5_Icon6_0"
    },
    {
      "children": [
        22
      ],
      "matrix": [
        1.0,
        0.0,
        0.0,
        0.0,
        0.0,
        0.999999999999999,
        4.371138895287174e-08,
        0.0,
        0.0,
        -4.371138895287174e-08,
        0.999999999999999,
        0.0,
        111.52461242675781,
        64.35501098632813,
        1.7046090364456177,
        1.0
      ],
      "name": "V5_Icon7"
    },
    {
      "children": [
        23
      ],
      "matrix": [
        1.0,
        0.0,
        0.0,
        0.0,
        0.0,
        6.123233995736766e-17,
        -1.0,
        0.0,
        -0.0,
        1.0,
        6.123233995736766e-17,
        0.0,
        0.0,
        6.7219363755755e-13,
        1.53779983520508e-05,
        1.0
      ],
      "name": "Object_22"
    },
    {
      "mesh": 6,
      "name": "V5_Icon7_V5_Icon7_0"
    }
  ],
  "samplers": [
    {
      "magFilter": 9729,
      "minFilter": 9987,
      "wrapS": 10497,
      "wrapT": 10497
    }
  ],
  "scene": 0,
  "scenes": [
    {
      "name": "Sketchfab_Scene",
      "nodes": [
        0
      ]
    }
  ],
  "textures": [
    {
      "sampler": 0,
      "source": 0
    },
    {
      "sampler": 0,
      "source": 1
    },
    {
      "sampler": 0,
      "source": 2
    },
    {
      "sampler": 0,
      "source": 3
    },
    {
      "sampler": 0,
      "source": 4
    },
    {
      "sampler": 0,
      "source": 5
    },
    {
      "sampler": 0,
      "source": 6
    },
    {
      "sampler": 0,
      "source": 7
    }
  ]
}
