{
  "accessors": [
    {
      "bufferView": 2,
      "componentType": 5126,
      "count": 453,
      "max": [
        0.6292800307273865,
        0.44990432262420654,
        0.41306403279304504
      ],
      "min": [
        -0.6267394423484802,
        0.2656034529209137,
        -0.4218062460422516
      ],
      "type": "VEC3"
    },
    {
      "bufferView": 2,
      "byteOffset": 5436,
      "componentType": 5126,
      "count": 453,
      "max": [
        0.9957217574119568,
        0.9967303276062012,
        0.9957218766212463
      ],
      "min": [
        -0.9957217574119568,
        -0.9967303276062012,
        -0.9957218766212463
      ],
      "type": "VEC3"
    },
    {
      "bufferView": 1,
      "componentType": 5126,
      "count": 453,
      "max": [
        1.0,
        1.0
      ],
      "min": [
        0.0,
        0.0
      ],
      "type": "VEC2"
    },
    {
      "bufferView": 0,
      "componentType": 5125,
      "count": 2580,
      "type": "SCALAR"
    },
    {
      "bufferView": 2,
      "byteOffset": 10872,
      "componentType": 5126,
      "count": 17109,
      "max": [
        1.240115761756897,
        0.5166548490524292,
        1.2401158809661865
      ],
      "min": [
        -1.240115761756897,
        -0.3401590585708618,
        -1.2401158809661865
      ],
      "type": "VEC3"
    },
    {
      "bufferView": 2,
      "byteOffset": 216180,
      "componentType": 5126,
      "count": 17109,
      "max": [
        1.0,
        1.0,
        1.0
      ],
      "min": [
        -1.0,
        -1.0,
        -1.0
      ],
      "type": "VEC3"
    },
    {
      "bufferView": 1,
      "byteOffset": 3624,
      "componentType": 5126,
      "count": 17109,
      "max": [
        1.0000001192092896,
        1.0
      ],
      "min": [
        0.0,
        -1.1920928955078125e-07
      ],
      "type": "VEC2"
    },
    {
      "bufferView": 0,
      "byteOffset": 10320,
      "componentType": 5125,
      "count": 91392,
      "type": "SCALAR"
    }
  ],
  "asset": {
    "extras": {
      "author": "pengedarseni (https://sketchfab.com/pengedarseni)",
      "license": "CC-BY-4.0 (http://creativecommons.org/licenses/by/4.0/)",
      "source": "https://sketchfab.com/3d-models/3d-youtube-logo-43731340eb494e5a8a5375eb177c753f",
      "title": "3D Youtube Logo"
    },
    "generator": "Sketchfab-15.58.0",
    "version": "2.0"
  },
  "bufferViews": [
    {
      "buffer": 0,
      "byteLength": 375888,
      "name": "floatBufferViews",
      "target": 34963
    },
    {
      "buffer": 0,
      "byteLength": 140496,
      "byteOffset": 375888,
      "byteStride": 8,
      "name": "floatBufferViews",
      "target": 34962
    },
    {
      "buffer": 0,
      "byteLength": 421488,
      "byteOffset": 516384,
      "byteStride": 12,
      "name": "floatBufferViews",
      "target": 34962
    }
  ],
  "buffers": [
    {
      "byteLength": 937872,
      "uri": "scene.bin"
    }
  ],
  "materials": [
    {
      "doubleSided": true,
      "name": "glossy_putih",
      "pbrMetallicRoughness": {
        "baseColorFactor": [
          0.8,
          0.8,
          0.8,
          1.0
        ],
        "metallicFactor": 0.0,
        "roughnessFactor": 0.2
      }
    },
    {
      "doubleSided": true,
      "name": "GLOSSY_YT",
      "pbrMetallicRoughness": {
        "baseColorFactor": [
          0.799103,
          0.0176418,
          0.00749906,
          1.0
        ],
        "metallicFactor": 0.0,
        "roughnessFactor": 0.2
      }
    }
  ],
  "meshes": [
    {
      "name": "Object_0",
      "primitives": [
        {
          "attributes": {
            "NORMAL": 1,
            "POSITION": 0,
            "TEXCOORD_0": 2
          },
          "indices": 3,
          "material": 0,
          "mode": 4
        }
      ]
    },
    {
      "name": "Object_1",
      "primitives": [
        {
          "attributes": {
            "NORMAL": 5,
            "POSITION": 4,
            "TEXCOORD_0": 6
          },
          "indices": 7,
          "material": 1,
          "mode": 4
        }
      ]
    }
  ],
  "nodes": [
    {
      "children": [
        1
      ],
      "matrix": [
        1.0,
        0.0,
        0.0,
        0.0,
        0.0,
        2.220446049250313e-16,
        -1.0,
        0.0,
        0.0,
        1.0,
        2.220446049250313e-16,
        0.0,
        0.0,
        0.0,
        0.0,
        1.0
      ],
      "name": "Sketchfab_model"
    },
    {
      "children": [
        2
      ],
      "name": "root"
    },
    {
      "children": [
        3
      ],
      "matrix": [
        1.0,
        0.0,
        0.0,
        0.0,
        0.0,
        2.220446049250313e-16,
        1.0,
        0.0,
        0.0,
        -1.0,
        2.220446049250313e-16,
        0.0,
        0.0,
        0.0,
        0.0,
        1.0
      ],
      "name": "GLTF_SceneRootNode"
    },
    {
      "children": [
        4,
        5
      ],
      "matrix": [
        0.8430913090705872,
        0.0,
        0.0,
        0.0,
        0.0,
        0.0,
        0.8430913090705872,
        0.0,
        0.0,
        -0.8430910706520081,
        0.0,
        0.0,
        0.0,
        3.0,
        6.0,
        1.0
      ],
      "name": "Cylinder.040_0"
    },
    {
      "mesh": 0,
      "name": "Object_4"
    },
    {
      "mesh": 1,
      "name": "Object_5"
    }
  ],
  "scene": 0,
  "scenes": [
    {
      "name": "Sketchfab_Scene",
      "nodes": [
        0
      ]
    }
  ]
}
