{
  "accessors": [
    {
      "bufferView": 2,
      "componentType": 5126,
      "count": 7823,
      "max": [
        0.589805006980896,
        0.532010018825531,
        0.5922549962997437
      ],
      "min": [
        0.07554750144481659,
        0.22707100212574005,
        -0.12222500145435333
      ],
      "type": "VEC3"
    },
    {
      "bufferView": 2,
      "byteOffset": 93876,
      "componentType": 5126,
      "count": 7823,
      "max": [
        0.9999558925628662,
        0.9999971985816956,
        0.9999578595161438
      ],
      "min": [
        -0.9998471736907959,
        -0.999943196773529,
        -0.999957799911499
      ],
      "type": "VEC3"
    },
    {
      "bufferView": 1,
      "componentType": 5126,
      "count": 7823,
      "max": [
        0.999737024307251,
        0.9353935718536377
      ],
      "min": [
        0.0006164410151541233,
        0.000491023063659668
      ],
      "type": "VEC2"
    },
    {
      "bufferView": 0,
      "componentType": 5125,
      "count": 44118,
      "type": "SCALAR"
    },
    {
      "bufferView": 2,
      "byteOffset": 187752,
      "componentType": 5126,
      "count": 30392,
      "max": [
        0.4470039904117584,
        0.16941000521183014,
        -0.22696000337600708
      ],
      "min": [
        -0.01728449948132038,
        -0.2849549949169159,
        -0.4801810085773468
      ],
      "type": "VEC3"
    },
    {
      "bufferView": 2,
      "byteOffset": 552456,
      "componentType": 5126,
      "count": 30392,
      "max": [
        0.9995831847190857,
        0.9999110698699951,
        0.9999110698699951
      ],
      "min": [
        -0.9988960027694702,
        -0.9999085664749146,
        -0.9999681115150452
      ],
      "type": "VEC3"
    },
    {
      "bufferView": 1,
      "byteOffset": 62584,
      "componentType": 5126,
      "count": 30392,
      "max": [
        0.9169359803199768,
        0.9991081357002258
      ],
      "min": [
        0.0009057529969140887,
        0.000491023063659668
      ],
      "type": "VEC2"
    },
    {
      "bufferView": 0,
      "byteOffset": 176472,
      "componentType": 5125,
      "count": 177741,
      "type": "SCALAR"
    },
    {
      "bufferView": 2,
      "byteOffset": 917160,
      "componentType": 5126,
      "count": 4130,
      "max": [
        0.6082760095596313,
        0.41693800687789917,
        -0.17211900651454926
      ],
      "min": [
        -0.24050700664520264,
        -0.35247498750686646,
        -0.9160630106925964
      ],
      "type": "VEC3"
    },
    {
      "bufferView": 2,
      "byteOffset": 966720,
      "componentType": 5126,
      "count": 4130,
      "max": [
        0.9951709508895874,
        0.9997868537902832,
        0.9998780488967896
      ],
      "min": [
        -0.9892179369926453,
        -0.999441385269165,
        -0.9998795390129089
      ],
      "type": "VEC3"
    },
    {
      "bufferView": 1,
      "byteOffset": 305720,
      "componentType": 5126,
      "count": 4130,
      "max": [
        0.9997490048408508,
        0.9758058786392212
      ],
      "min": [
        0.0005632740212604403,
        0.00017601251602172852
      ],
      "type": "VEC2"
    },
    {
      "bufferView": 0,
      "byteOffset": 887436,
      "componentType": 5125,
      "count": 21168,
      "type": "SCALAR"
    },
    {
      "bufferView": 2,
      "byteOffset": 1016280,
      "componentType": 5126,
      "count": 26343,
      "max": [
        0.8995190262794495,
        0.4756920039653778,
        0.6968179941177368
      ],
      "min": [
        -0.3068090081214905,
        -0.7659609913825989,
        -0.7537199854850769
      ],
      "type": "VEC3"
    },
    {
      "bufferView": 2,
      "byteOffset": 1332396,
      "componentType": 5126,
      "count": 26343,
      "max": [
        0.9999117255210876,
        0.9999470114707947,
        0.9998946785926819
      ],
      "min": [
        -0.9997940063476563,
        -0.9998651146888733,
        -0.9996395111083984
      ],
      "type": "VEC3"
    },
    {
      "bufferView": 1,
      "byteOffset": 338760,
      "componentType": 5126,
      "count": 26343,
      "max": [
        0.9997100234031677,
        0.9245238900184631
      ],
      "min": [
        0.0008689829846844077,
        5.1975250244140625e-05
      ],
      "type": "VEC2"
    },
    {
      "bufferView": 0,
      "byteOffset": 972108,
      "componentType": 5125,
      "count": 154371,
      "type": "SCALAR"
    },
    {
      "bufferView": 2,
      "byteOffset": 1648512,
      "componentType": 5126,
      "count": 7515,
      "max": [
        0.6908810138702393,
        0.5209019780158997,
        0.2590300142765045
      ],
      "min": [
        -0.4786889851093292,
        -0.44599398970603943,
        -0.7445619702339172
      ],
      "type": "VEC3"
    },
    {
      "bufferView": 2,
      "byteOffset": 1738692,
      "componentType": 5126,
      "count": 7515,
      "max": [
        0.9993122220039368,
        0.9993704557418823,
        0.9997575283050537
      ],
      "min": [
        -0.9994195699691772,
        -0.999265193939209,
        -0.9995188117027283
      ],
      "type": "VEC3"
    },
    {
      "bufferView": 1,
      "byteOffset": 549504,
      "componentType": 5126,
      "count": 7515,
      "max": [
        0.9991009831428528,
        0.9856622219085693
      ],
      "min": [
        0.0004028049879707396,
        0.00019502639770507813
      ],
      "type": "VEC2"
    },
    {
      "bufferView": 0,
      "byteOffset": 1589592,
      "componentType": 5125,
      "count": 16770,
      "type": "SCALAR"
    },
    {
      "bufferView": 3,
      "componentType": 5126,
      "count": 161,
      "max": [
        6.708333492279053
      ],
      "min": [
        0.0416666679084301
      ],
      "type": "SCALAR"
    },
    {
      "bufferView": 4,
      "componentType": 5126,
      "count": 161,
      "max": [
        0.70710688829422,
        0.7071066498756409,
        0.7068002820014954,
        0.7071066498756409
      ],
      "min": [
        5.338508657359853e-08,
        -0.7068001627922058,
        -0.70710688829422,
        5.338507946817117e-08
      ],
      "type": "VEC4"
    }
  ],
  "animations": [
    {
      "channels": [
        {
          "sampler": 0,
          "target": {
            "node": 3,
            "path": "rotation"
          }
        }
      ],
      "name": "BOLSA_MONEYAction",
      "samplers": [
        {
          "input": 20,
          "interpolation": "LINEAR",
          "output": 21
        }
      ]
    }
  ],
  "asset": {
    "extras": {
      "author": "LM.Bacilio (https://sketchfab.com/LM.Bacilio)",
      "license": "CC-BY-4.0 (http://creativecommons.org/licenses/by/4.0/)",
      "source": "https://sketchfab.com/3d-models/bolsa-money-b5f5e9b35a434b99890ddae431d2dcec",
      "title": "BOLSA MONEY"
    },
    "generator": "Sketchfab-14.64.0",
    "version": "2.0"
  },
  "bufferViews": [
    {
      "buffer": 0,
      "byteLength": 1656672,
      "name": "floatBufferViews",
      "target": 34963
    },
    {
      "buffer": 0,
      "byteLength": 609624,
      "byteOffset": 1656672,
      "byteStride": 8,
      "name": "floatBufferViews",
      "target": 34962
    },
    {
      "buffer": 0,
      "byteLength": 1828872,
      "byteOffset": 2266296,
      "byteStride": 12,
      "name": "floatBufferViews",
      "target": 34962
    },
    {
      "buffer": 0,
      "byteLength": 644,
      "byteOffset": 4095168,
      "name": "floatBufferViews"
    },
    {
      "buffer": 0,
      "byteLength": 2576,
      "byteOffset": 4095812,
      "byteStride": 16,
      "name": "floatBufferViews"
    }
  ],
  "buffers": [
    {
      "byteLength": 4098388,
      "uri": "scene.bin"
    }
  ],
  "extensionsUsed": [
    "KHR_materials_specular"
  ],
  "images": [
    {
      "uri": "textures/mat0_SIMBOLO_baseColor.png"
    },
    {
      "uri": "textures/mat0_SIMBOLO_specularf0.png"
    },
    {
      "uri": "textures/mat0_CUERDA_baseColor.png"
    },
    {
      "uri": "textures/mat0_BILLETE_baseColor.png"
    },
    {
      "uri": "textures/mat0_BOLSA_baseColor.png"
    },
    {
      "uri": "textures/mat0_MONEDAS_baseColor.png"
    }
  ],
  "materials": [
    {
      "doubleSided": true,
      "extensions": {
        "KHR_materials_specular": {
          "specularColorFactor": [
            1.0,
            1.0,
            1.0
          ],
          "specularFactor": 1.0,
          "specularTexture": {
            "index": 1
          }
        }
      },
      "name": "mat0_SIMBOLO",
      "pbrMetallicRoughness": {
        "baseColorTexture": {
          "index": 0
        },
        "metallicFactor": 0.0
      }
    },
    {
      "doubleSided": true,
      "name": "mat0_CUERDA",
      "pbrMetallicRoughness": {
        "baseColorTexture": {
          "index": 2
        },
        "metallicFactor": 0.0
      }
    },
    {
      "doubleSided": true,
      "name": "mat0_BILLETE",
      "pbrMetallicRoughness": {
        "baseColorTexture": {
          "index": 3
        },
        "metallicFactor": 0.0
      }
    },
    {
      "doubleSided": true,
      "name": "mat0_BOLSA",
      "pbrMetallicRoughness": {
        "baseColorTexture": {
          "index": 4
        },
        "metallicFactor": 0.163636,
        "roughnessFactor": 0.427273
      }
    },
    {
      "doubleSided": true,
      "name": "mat0_MONEDAS",
      "pbrMetallicRoughness": {
        "baseColorTexture": {
          "index": 5
        },
        "metallicFactor": 0.913636,
        "roughnessFactor": 0.0090909
      }
    }
  ],
  "meshes": [
    {
      "name": "Object_0",
      "primitives": [
        {
          "attributes": {
            "NORMAL": 1,
            "POSITION": 0,
            "TEXCOORD_0": 2
          },
          "indices": 3,
          "material": 0,
          "mode": 4
        }
      ]
    },
    {
      "name": "Object_1",
      "primitives": [
        {
          "attributes": {
            "NORMAL": 5,
            "POSITION": 4,
            "TEXCOORD_0": 6
          },
          "indices": 7,
          "material": 1,
          "mode": 4
        }
      ]
    },
    {
      "name": "Object_2",
      "primitives": [
        {
          "attributes": {
            "NORMAL": 9,
            "POSITION": 8,
            "TEXCOORD_0": 10
          },
          "indices": 11,
          "material": 2,
          "mode": 4
        }
      ]
    },
    {
      "name": "Object_3",
      "primitives": [
        {
          "attributes": {
            "NORMAL": 13,
            "POSITION": 12,
            "TEXCOORD_0": 14
          },
          "indices": 15,
          "material": 3,
          "mode": 4
        }
      ]
    },
    {
      "name": "Object_4",
      "primitives": [
        {
          "attributes": {
            "NORMAL": 17,
            "POSITION": 16,
            "TEXCOORD_0": 18
          },
          "indices": 19,
          "material": 4,
          "mode": 4
        }
      ]
    }
  ],
  "nodes": [
    {
      "children": [
        1
      ],
      "matrix": [
        1.0,
        0.0,
        0.0,
        0.0,
        0.0,
        2.220446049250313e-16,
        -1.0,
        0.0,
        0.0,
        1.0,
        2.220446049250313e-16,
        0.0,
        0.0,
        0.0,
        0.0,
        1.0
      ],
      "name": "Sketchfab_model"
    },
    {
      "children": [
        2
      ],
      "name": "root"
    },
    {
      "children": [
        3
      ],
      "matrix": [
        1.0,
        0.0,
        0.0,
        0.0,
        0.0,
        2.220446049250313e-16,
        1.0,
        0.0,
        0.0,
        -1.0,
        2.220446049250313e-16,
        0.0,
        0.0,
        0.0,
        0.0,
        1.0
      ],
      "name": "GLTF_SceneRootNode"
    },
    {
      "children": [
        4,
        5,
        6,
        7,
        8
      ],
      "name": "BOLSA_MONEY_0",
      "rotation": [
        0.70710688829422,
        0.0,
        0.0,
        0.7071066498756409
      ],
      "translation": [
        0.0,
        0.7996147871017456,
        0.0
      ]
    },
    {
      "mesh": 0,
      "name": "Object_4"
    },
    {
      "mesh": 1,
      "name": "Object_5"
    },
    {
      "mesh": 2,
      "name": "Object_6"
    },
    {
      "mesh": 3,
      "name": "Object_7"
    },
    {
      "mesh": 4,
      "name": "Object_8"
    }
  ],
  "samplers": [
    {
      "magFilter": 9729,
      "minFilter": 9987,
      "wrapS": 10497,
      "wrapT": 10497
    }
  ],
  "scene": 0,
  "scenes": [
    {
      "name": "Sketchfab_Scene",
      "nodes": [
        0
      ]
    }
  ],
  "textures": [
    {
      "sampler": 0,
      "source": 0
    },
    {
      "sampler": 0,
      "source": 1
    },
    {
      "sampler": 0,
      "source": 2
    },
    {
      "sampler": 0,
      "source": 3
    },
    {
      "sampler": 0,
      "source": 4
    },
    {
      "sampler": 0,
      "source": 5
    }
  ]
}
