{
  "accessors": [
    {
      "bufferView": 2,
      "componentType": 5126,
      "count": 2588,
      "max": [
        2.808417320251465,
        1.784921407699585,
        0.2823984622955322
      ],
      "min": [
        0.6437320709228516,
        -2.417091131210327,
        -2.7802891731262207
      ],
      "type": "VEC3"
    },
    {
      "bufferView": 2,
      "byteOffset": 31056,
      "componentType": 5126,
      "count": 2588,
      "max": [
        0.9063088297843933,
        0.9063080549240112,
        0.8660260438919067
      ],
      "min": [
        -0.906309187412262,
        -0.9063080549240112,
        -0.8660261034965515
      ],
      "type": "VEC3"
    },
    {
      "bufferView": 3,
      "componentType": 5126,
      "count": 2588,
      "max": [
        0.4226228892803192,
        0.9063088297843933,
        1.0,
        1.0
      ],
      "min": [
        -0.4226210415363312,
        -0.906309187412262,
        -1.0,
        -1.0
      ],
      "type": "VEC4"
    },
    {
      "bufferView": 1,
      "componentType": 5126,
      "count": 2588,
      "max": [
        1.0,
        1.0
      ],
      "min": [
        -8.940696716308594e-08,
        0.5
      ],
      "type": "VEC2"
    },
    {
      "bufferView": 0,
      "componentType": 5125,
      "count": 3888,
      "type": "SCALAR"
    },
    {
      "bufferView": 2,
      "byteOffset": 62112,
      "componentType": 5126,
      "count": 5302,
      "max": [
        4.958292484283447,
        4.978334426879883,
        6.35498046875
      ],
      "min": [
        -4.9510626792907715,
        -4.869545936584473,
        -5.712660789489746
      ],
      "type": "VEC3"
    },
    {
      "bufferView": 2,
      "byteOffset": 125736,
      "componentType": 5126,
      "count": 5302,
      "max": [
        0.9945164918899536,
        0.9999946355819702,
        0.9999021291732788
      ],
      "min": [
        -0.9945164918899536,
        -0.9987597465515137,
        -0.9989396929740906
      ],
      "type": "VEC3"
    },
    {
      "bufferView": 3,
      "byteOffset": 41408,
      "componentType": 5126,
      "count": 5302,
      "max": [
        0.9944056868553162,
        0.9782349467277527,
        0.9999945759773254,
        1.0
      ],
      "min": [
        -0.9944973587989807,
        -0.9946102499961853,
        -0.9999945759773254,
        -1.0
      ],
      "type": "VEC4"
    },
    {
      "bufferView": 1,
      "byteOffset": 20704,
      "componentType": 5126,
      "count": 5302,
      "max": [
        1.0,
        0.9999999403953552
      ],
      "min": [
        0.0,
        0.0
      ],
      "type": "VEC2"
    },
    {
      "bufferView": 0,
      "byteOffset": 15552,
      "componentType": 5125,
      "count": 7830,
      "type": "SCALAR"
    }
  ],
  "asset": {
    "extras": {
      "author": "Matt LeMoine (https://sketchfab.com/Matt_LeMoine)",
      "license": "CC-BY-4.0 (http://creativecommons.org/licenses/by/4.0/)",
      "source": "https://sketchfab.com/3d-models/hive-1b0b7c4eebe24dd384f7803e60380582",
      "title": "Hive"
    },
    "generator": "Sketchfab-12.67.0",
    "version": "2.0"
  },
  "bufferViews": [
    {
      "buffer": 0,
      "byteLength": 46872,
      "name": "floatBufferViews",
      "target": 34963
    },
    {
      "buffer": 0,
      "byteLength": 63120,
      "byteOffset": 46872,
      "byteStride": 8,
      "name": "floatBufferViews",
      "target": 34962
    },
    {
      "buffer": 0,
      "byteLength": 189360,
      "byteOffset": 109992,
      "byteStride": 12,
      "name": "floatBufferViews",
      "target": 34962
    },
    {
      "buffer": 0,
      "byteLength": 126240,
      "byteOffset": 299352,
      "byteStride": 16,
      "name": "floatBufferViews",
      "target": 34962
    }
  ],
  "buffers": [
    {
      "byteLength": 425592,
      "uri": "scene.bin"
    }
  ],
  "images": [
    {
      "uri": "textures/Comb_baseColor.png"
    },
    {
      "uri": "textures/Comb_metallicRoughness.png"
    },
    {
      "uri": "textures/Comb_normal.png"
    },
    {
      "uri": "textures/Hive_baseColor.png"
    },
    {
      "uri": "textures/Hive_metallicRoughness.png"
    },
    {
      "uri": "textures/Hive_normal.png"
    }
  ],
  "materials": [
    {
      "doubleSided": true,
      "name": "Comb",
      "normalTexture": {
        "index": 2
      },
      "occlusionTexture": {
        "index": 1
      },
      "pbrMetallicRoughness": {
        "baseColorTexture": {
          "index": 0
        },
        "metallicFactor": 0.0,
        "metallicRoughnessTexture": {
          "index": 1
        }
      }
    },
    {
      "doubleSided": true,
      "name": "Hive",
      "normalTexture": {
        "index": 5
      },
      "occlusionTexture": {
        "index": 4
      },
      "pbrMetallicRoughness": {
        "baseColorTexture": {
          "index": 3
        },
        "metallicFactor": 0.0,
        "metallicRoughnessTexture": {
          "index": 4
        }
      }
    }
  ],
  "meshes": [
    {
      "name": "Comb_Comb_0",
      "primitives": [
        {
          "attributes": {
            "NORMAL": 1,
            "POSITION": 0,
            "TANGENT": 2,
            "TEXCOORD_0": 3
          },
          "indices": 4,
          "material": 0,
          "mode": 4
        }
      ]
    },
    {
      "name": "Hive_Hive_0",
      "primitives": [
        {
          "attributes": {
            "NORMAL": 6,
            "POSITION": 5,
            "TANGENT": 7,
            "TEXCOORD_0": 8
          },
          "indices": 9,
          "material": 1,
          "mode": 4
        }
      ]
    }
  ],
  "nodes": [
    {
      "children": [
        1
      ],
      "matrix": [
        1.0,
        0.0,
        0.0,
        0.0,
        0.0,
        2.220446049250313e-16,
        -1.0,
        0.0,
        0.0,
        1.0,
        2.220446049250313e-16,
        0.0,
        0.0,
        0.0,
        0.0,
        1.0
      ],
      "name": "Sketchfab_model"
    },
    {
      "children": [
        2
      ],
      "matrix": [
        1.0,
        0.0,
        0.0,
        0.0,
        0.0,
        0.0,
        1.0,
        0.0,
        0.0,
        -1.0,
        0.0,
        0.0,
        0.0,
        0.0,
        0.0,
        1.0
      ],
      "name": "71e90b12e1a04cff883373a365902726.fbx"
    },
    {
      "children": [
        3,
        5
      ],
      "name": "RootNode"
    },
    {
      "children": [
        4
      ],
      "matrix": [
        100.0,
        0.0,
        0.0,
        0.0,
        0.0,
        -1.629206793918314e-05,
        -99.99999999999868,
        0.0,
        0.0,
        99.99999999999868,
        -1.629206793918314e-05,
        0.0,
        0.0,
        0.0,
        0.0,
        1.0
      ],
      "name": "Comb"
    },
    {
      "mesh": 0,
      "name": "Comb_Comb_0"
    },
    {
      "children": [
        6
      ],
      "matrix": [
        100.0,
        0.0,
        0.0,
        0.0,
        0.0,
        -1.629206793918314e-05,
        -99.99999999999868,
        0.0,
        0.0,
        99.99999999999868,
        -1.629206793918314e-05,
        0.0,
        0.0,
        0.0,
        0.0,
        1.0
      ],
      "name": "Hive"
    },
    {
      "mesh": 1,
      "name": "Hive_Hive_0"
    }
  ],
  "samplers": [
    {
      "magFilter": 9729,
      "minFilter": 9987,
      "wrapS": 10497,
      "wrapT": 10497
    }
  ],
  "scene": 0,
  "scenes": [
    {
      "name": "Sketchfab_Scene",
      "nodes": [
        0
      ]
    }
  ],
  "textures": [
    {
      "sampler": 0,
      "source": 0
    },
    {
      "sampler": 0,
      "source": 1
    },
    {
      "sampler": 0,
      "source": 2
    },
    {
      "sampler": 0,
      "source": 3
    },
    {
      "sampler": 0,
      "source": 4
    },
    {
      "sampler": 0,
      "source": 5
    }
  ]
}
