{
  "accessors": [
    {
      "bufferView": 2,
      "componentType": 5126,
      "count": 4738,
      "max": [
        75.0,
        100.0,
        6.0
      ],
      "min": [
        -75.01087188720703,
        -99.97531127929688,
        -6.0
      ],
      "type": "VEC3"
    },
    {
      "bufferView": 2,
      "byteOffset": 56856,
      "componentType": 5126,
      "count": 4738,
      "max": [
        1.0,
        1.0,
        1.0
      ],
      "min": [
        -1.0,
        -1.0,
        -1.0
      ],
      "type": "VEC3"
    },
    {
      "bufferView": 1,
      "componentType": 5126,
      "count": 4738,
      "max": [
        3.50034761428833,
        0.9998765587806702
      ],
      "min": [
        0.0,
        0.0
      ],
      "type": "VEC2"
    },
    {
      "bufferView": 0,
      "componentType": 5125,
      "count": 23508,
      "type": "SCALAR"
    },
    {
      "bufferView": 2,
      "byteOffset": 113712,
      "componentType": 5126,
      "count": 4738,
      "max": [
        75.0,
        100.0,
        6.0
      ],
      "min": [
        -75.01087188720703,
        -99.97531127929688,
        -6.0
      ],
      "type": "VEC3"
    },
    {
      "bufferView": 2,
      "byteOffset": 170568,
      "componentType": 5126,
      "count": 4738,
      "max": [
        1.0,
        1.0,
        1.0
      ],
      "min": [
        -1.0,
        -1.0,
        -1.0
      ],
      "type": "VEC3"
    },
    {
      "bufferView": 1,
      "byteOffset": 37904,
      "componentType": 5126,
      "count": 4738,
      "max": [
        3.50034761428833,
        0.9998765587806702
      ],
      "min": [
        0.0,
        0.0
      ],
      "type": "VEC2"
    },
    {
      "bufferView": 0,
      "byteOffset": 94032,
      "componentType": 5125,
      "count": 23508,
      "type": "SCALAR"
    },
    {
      "bufferView": 3,
      "componentType": 5126,
      "count": 30,
      "max": [
        3.000000238418579
      ],
      "min": [
        0.05000000074505806
      ],
      "type": "SCALAR"
    },
    {
      "bufferView": 4,
      "componentType": 5126,
      "count": 30,
      "max": [
        1.0,
        1.0,
        1.0
      ],
      "min": [
        0.9999999403953552,
        0.9999999403953552,
        1.0
      ],
      "type": "VEC3"
    },
    {
      "bufferView": 3,
      "byteOffset": 120,
      "componentType": 5126,
      "count": 61,
      "max": [
        3.000000238418579
      ],
      "min": [
        0.0
      ],
      "type": "SCALAR"
    },
    {
      "bufferView": 5,
      "componentType": 5126,
      "count": 61,
      "max": [
        0.7071067690849304,
        0.4731479585170746,
        0.7071067690849304,
        0.7071067690849304
      ],
      "min": [
        -0.5,
        -0.7071067690849304,
        -0.4731498658657074,
        -0.49999821186065674
      ],
      "type": "VEC4"
    },
    {
      "bufferView": 3,
      "byteOffset": 364,
      "componentType": 5126,
      "count": 61,
      "max": [
        3.000000238418579
      ],
      "min": [
        0.0
      ],
      "type": "SCALAR"
    },
    {
      "bufferView": 4,
      "byteOffset": 360,
      "componentType": 5126,
      "count": 61,
      "max": [
        49.99456024169922,
        9.048006177181378e-05,
        -375.00543212890625
      ],
      "min": [
        0.00543975830078125,
        -9.048006177181378e-05,
        -424.99456787109375
      ],
      "type": "VEC3"
    },
    {
      "bufferView": 3,
      "byteOffset": 608,
      "componentType": 5126,
      "count": 21,
      "max": [
        3.000000238418579
      ],
      "min": [
        0.05000000074505806
      ],
      "type": "SCALAR"
    },
    {
      "bufferView": 4,
      "byteOffset": 1092,
      "componentType": 5126,
      "count": 21,
      "max": [
        1.0,
        1.0,
        1.0
      ],
      "min": [
        0.9999999403953552,
        0.9999999403953552,
        1.0
      ],
      "type": "VEC3"
    },
    {
      "bufferView": 3,
      "byteOffset": 692,
      "componentType": 5126,
      "count": 61,
      "max": [
        3.000000238418579
      ],
      "min": [
        0.0
      ],
      "type": "SCALAR"
    },
    {
      "bufferView": 5,
      "byteOffset": 976,
      "componentType": 5126,
      "count": 61,
      "max": [
        0.0,
        0.0,
        1.0,
        1.0
      ],
      "min": [
        0.0,
        0.0,
        -0.707106351852417,
        -0.6691311001777649
      ],
      "type": "VEC4"
    },
    {
      "bufferView": 3,
      "byteOffset": 936,
      "componentType": 5126,
      "count": 61,
      "max": [
        3.000000238418579
      ],
      "min": [
        0.0
      ],
      "type": "SCALAR"
    },
    {
      "bufferView": 4,
      "byteOffset": 1344,
      "componentType": 5126,
      "count": 61,
      "max": [
        49.99456024169922,
        24.99456024169922,
        -400.0
      ],
      "min": [
        0.00543975830078125,
        -24.99456024169922,
        -400.0
      ],
      "type": "VEC3"
    }
  ],
  "animations": [
    {
      "channels": [
        {
          "sampler": 0,
          "target": {
            "node": 6,
            "path": "scale"
          }
        },
        {
          "sampler": 1,
          "target": {
            "node": 6,
            "path": "rotation"
          }
        },
        {
          "sampler": 2,
          "target": {
            "node": 6,
            "path": "translation"
          }
        },
        {
          "sampler": 3,
          "target": {
            "node": 9,
            "path": "scale"
          }
        },
        {
          "sampler": 4,
          "target": {
            "node": 9,
            "path": "rotation"
          }
        },
        {
          "sampler": 5,
          "target": {
            "node": 9,
            "path": "translation"
          }
        }
      ],
      "name": "BluffTitler Animation",
      "samplers": [
        {
          "input": 8,
          "interpolation": "LINEAR",
          "output": 9
        },
        {
          "input": 10,
          "interpolation": "LINEAR",
          "output": 11
        },
        {
          "input": 12,
          "interpolation": "LINEAR",
          "output": 13
        },
        {
          "input": 14,
          "interpolation": "LINEAR",
          "output": 15
        },
        {
          "input": 16,
          "interpolation": "LINEAR",
          "output": 17
        },
        {
          "input": 18,
          "interpolation": "LINEAR",
          "output": 19
        }
      ]
    }
  ],
  "asset": {
    "extras": {
      "author": "OuterspaceSoftware (https://sketchfab.com/OuterspaceSoftware)",
      "license": "CC-BY-4.0 (http://creativecommons.org/licenses/by/4.0/)",
      "source": "https://sketchfab.com/3d-models/yin-yang-4d41f70662c34a94b732e36b480782bb",
      "title": "Yin Yang"
    },
    "generator": "Sketchfab-16.16.0",
    "version": "2.0"
  },
  "bufferViews": [
    {
      "buffer": 0,
      "byteLength": 188064,
      "name": "floatBufferViews",
      "target": 34963
    },
    {
      "buffer": 0,
      "byteLength": 75808,
      "byteOffset": 188064,
      "byteStride": 8,
      "name": "floatBufferViews",
      "target": 34962
    },
    {
      "buffer": 0,
      "byteLength": 227424,
      "byteOffset": 263872,
      "byteStride": 12,
      "name": "floatBufferViews",
      "target": 34962
    },
    {
      "buffer": 0,
      "byteLength": 1180,
      "byteOffset": 491296,
      "name": "floatBufferViews"
    },
    {
      "buffer": 0,
      "byteLength": 2076,
      "byteOffset": 492476,
      "byteStride": 12,
      "name": "floatBufferViews"
    },
    {
      "buffer": 0,
      "byteLength": 1952,
      "byteOffset": 494552,
      "byteStride": 16,
      "name": "floatBufferViews"
    }
  ],
  "buffers": [
    {
      "byteLength": 496504,
      "uri": "scene.bin"
    }
  ],
  "images": [
    {
      "uri": "textures/Material_0_baseColor.png"
    }
  ],
  "materials": [
    {
      "name": "Material",
      "pbrMetallicRoughness": {
        "baseColorFactor": [
          0.411765,
          0.411765,
          0.411765,
          1.0
        ],
        "roughnessFactor": 0.25
      }
    },
    {
      "name": "Material_0",
      "pbrMetallicRoughness": {
        "baseColorTexture": {
          "index": 0
        },
        "roughnessFactor": 0.25
      }
    }
  ],
  "meshes": [
    {
      "name": "Object_0",
      "primitives": [
        {
          "attributes": {
            "NORMAL": 1,
            "POSITION": 0,
            "TEXCOORD_0": 2
          },
          "indices": 3,
          "material": 0,
          "mode": 4
        }
      ]
    },
    {
      "name": "Object_1",
      "primitives": [
        {
          "attributes": {
            "NORMAL": 5,
            "POSITION": 4,
            "TEXCOORD_0": 6
          },
          "indices": 7,
          "material": 1,
          "mode": 4
        }
      ]
    }
  ],
  "nodes": [
    {
      "children": [
        1
      ],
      "matrix": [
        1.0,
        0.0,
        0.0,
        0.0,
        0.0,
        2.220446049250313e-16,
        -1.0,
        0.0,
        0.0,
        1.0,
        2.220446049250313e-16,
        0.0,
        0.0,
        0.0,
        0.0,
        1.0
      ],
      "name": "Sketchfab_model"
    },
    {
      "children": [
        2
      ],
      "name": "root"
    },
    {
      "children": [
        3
      ],
      "matrix": [
        1.0,
        0.0,
        0.0,
        0.0,
        0.0,
        2.220446049250313e-16,
        1.0,
        0.0,
        0.0,
        -1.0,
        2.220446049250313e-16,
        0.0,
        0.0,
        0.0,
        0.0,
        1.0
      ],
      "name": "GLTF_SceneRootNode"
    },
    {
      "children": [
        4,
        5,
        8
      ],
      "name": "BluffTitler Show_0"
    },
    {
      "name": "BluffTitler Camera Layer 1_1",
      "rotation": [
        -0.3022231459617615,
        0.18063108623027802,
        0.05844002589583397,
        0.9341404438018799
      ],
      "translation": [
        94.63223266601563,
        183.45687866210938,
        -164.45263671875
      ]
    },
    {
      "children": [
        6
      ],
      "name": "BluffTitler Vector Layer 4_2"
    },
    {
      "children": [
        7
      ],
      "name": "Vector_3",
      "rotation": [
        -0.4999989867210388,
        -0.5000010132789612,
        0.5000029802322388,
        -0.49999698996543884
      ],
      "translation": [
        25.000202178955078,
        0.0,
        -375.00543212890625
      ]
    },
    {
      "mesh": 0,
      "name": "Object_7"
    },
    {
      "children": [
        9
      ],
      "name": "BluffTitler Vector Layer 5_4"
    },
    {
      "children": [
        10
      ],
      "name": "Vector_5",
      "rotation": [
        0.0,
        0.0,
        0.707106351852417,
        0.7071073651313782
      ],
      "translation": [
        24.999975204467773,
        -24.99456024169922,
        -400.0
      ]
    },
    {
      "mesh": 1,
      "name": "Object_10"
    }
  ],
  "samplers": [
    {
      "magFilter": 9729,
      "minFilter": 9729,
      "wrapS": 10497,
      "wrapT": 10497
    }
  ],
  "scene": 0,
  "scenes": [
    {
      "name": "Sketchfab_Scene",
      "nodes": [
        0
      ]
    }
  ],
  "textures": [
    {
      "sampler": 0,
      "source": 0
    }
  ]
}
