{
  "accessors": [
    {
      "bufferView": 2,
      "componentType": 5126,
      "count": 1984,
      "max": [
        0.9999997019767761,
        1.0,
        0.9999994039535522
      ],
      "min": [
        -0.9999990463256836,
        -1.0,
        -0.9999987483024597
      ],
      "type": "VEC3"
    },
    {
      "bufferView": 2,
      "byteOffset": 23808,
      "componentType": 5126,
      "count": 1984,
      "max": [
        0.9904384613037109,
        0.9951385855674744,
        0.9904384613037109
      ],
      "min": [
        -0.9904386401176453,
        -0.9951385259628296,
        -0.9904389381408691
      ],
      "type": "VEC3"
    },
    {
      "bufferView": 1,
      "componentType": 5126,
      "count": 1984,
      "max": [
        1.0000001192092896,
        1.0
      ],
      "min": [
        0.0,
        0.0
      ],
      "type": "VEC2"
    },
    {
      "bufferView": 2,
      "byteOffset": 47616,
      "componentType": 5126,
      "count": 1984,
      "max": [
        0.3952517509460449,
        0.39525270462036133,
        0.39525145292282104
      ],
      "min": [
        -0.39525240659713745,
        -0.39525270462036133,
        -0.3952521085739136
      ],
      "type": "VEC3"
    },
    {
      "bufferView": 2,
      "byteOffset": 71424,
      "componentType": 5126,
      "count": 1984,
      "max": [
        0.6331599354743958,
        0.6325628161430359,
        0.6331586241722107
      ],
      "min": [
        -0.6331593990325928,
        -0.6325626373291016,
        -0.6331585645675659
      ],
      "type": "VEC3"
    },
    {
      "bufferView": 2,
      "byteOffset": 95232,
      "componentType": 5126,
      "count": 1984,
      "max": [
        0.5667163729667664,
        0.5667164325714111,
        0.5667163729667664
      ],
      "min": [
        -0.5667163729667664,
        -0.5667163133621216,
        -0.5667163729667664
      ],
      "type": "VEC3"
    },
    {
      "bufferView": 2,
      "byteOffset": 119040,
      "componentType": 5126,
      "count": 1984,
      "max": [
        0.9904386401176453,
        1.9951385259628296,
        0.9904389381408691
      ],
      "min": [
        -0.9904384613037109,
        -0.6325624585151672,
        -0.9904384613037109
      ],
      "type": "VEC3"
    },
    {
      "bufferView": 2,
      "byteOffset": 142848,
      "componentType": 5126,
      "count": 1984,
      "max": [
        0.2927691340446472,
        0.2614823579788208,
        0.30865809321403503
      ],
      "min": [
        -0.29276931285858154,
        -0.2614823579788208,
        -0.3086582124233246
      ],
      "type": "VEC3"
    },
    {
      "bufferView": 2,
      "byteOffset": 166656,
      "componentType": 5126,
      "count": 1984,
      "max": [
        1.0646722316741943,
        1.9951385259628296,
        0.9919770956039429
      ],
      "min": [
        -1.5275859832763672,
        -0.771506130695343,
        -1.008148431777954
      ],
      "type": "VEC3"
    },
    {
      "bufferView": 0,
      "componentType": 5125,
      "count": 2880,
      "type": "SCALAR"
    },
    {
      "bufferView": 3,
      "componentType": 5126,
      "count": 160,
      "max": [
        6.666666507720947
      ],
      "min": [
        0.0416666679084301
      ],
      "type": "SCALAR"
    },
    {
      "bufferView": 3,
      "byteOffset": 640,
      "componentType": 5126,
      "count": 480,
      "max": [
        1.0
      ],
      "min": [
        0.0
      ],
      "type": "SCALAR"
    }
  ],
  "animations": [
    {
      "channels": [
        {
          "sampler": 0,
          "target": {
            "node": 4,
            "path": "weights"
          }
        }
      ],
      "name": "MorphBake",
      "samplers": [
        {
          "input": 10,
          "interpolation": "LINEAR",
          "output": 11
        }
      ]
    }
  ],
  "asset": {
    "extras": {
      "author": "tamminen (https://sketchfab.com/tamminen)",
      "license": "CC-BY-4.0 (http://creativecommons.org/licenses/by/4.0/)",
      "source": "https://sketchfab.com/3d-models/primitive-swapper-9200040d49db463b82f9032eaaa1636e",
      "title": "Primitive Swapper"
    },
    "generator": "Sketchfab-14.13.0",
    "version": "2.0"
  },
  "bufferViews": [
    {
      "buffer": 0,
      "byteLength": 11520,
      "name": "floatBufferViews",
      "target": 34963
    },
    {
      "buffer": 0,
      "byteLength": 15872,
      "byteOffset": 11520,
      "byteStride": 8,
      "name": "floatBufferViews",
      "target": 34962
    },
    {
      "buffer": 0,
      "byteLength": 190464,
      "byteOffset": 27392,
      "byteStride": 12,
      "name": "floatBufferViews",
      "target": 34962
    },
    {
      "buffer": 0,
      "byteLength": 2560,
      "byteOffset": 217856,
      "name": "floatBufferViews"
    }
  ],
  "buffers": [
    {
      "byteLength": 220416,
      "uri": "scene.bin"
    }
  ],
  "materials": [
    {
      "doubleSided": true,
      "name": "Scene_-_Root",
      "pbrMetallicRoughness": {
        "baseColorFactor": [
          0.12647657592861233,
          0.12647657592861233,
          0.12647657592861233,
          1.0
        ],
        "metallicFactor": 0.8700978898221403,
        "roughnessFactor": 0.2544769660250393
      }
    }
  ],
  "meshes": [
    {
      "name": "mesh_0",
      "primitives": [
        {
          "attributes": {
            "NORMAL": 1,
            "POSITION": 0,
            "TEXCOORD_0": 2
          },
          "indices": 9,
          "material": 0,
          "mode": 4,
          "targets": [
            {
              "NORMAL": 4,
              "POSITION": 3
            },
            {
              "NORMAL": 6,
              "POSITION": 5
            },
            {
              "NORMAL": 8,
              "POSITION": 7
            }
          ]
        }
      ],
      "weights": [
        0.0,
        0.0,
        0.0
      ]
    }
  ],
  "nodes": [
    {
      "children": [
        1
      ],
      "matrix": [
        1.0,
        0.0,
        0.0,
        0.0,
        0.0,
        2.220446049250313e-16,
        -1.0,
        0.0,
        0.0,
        1.0,
        2.220446049250313e-16,
        0.0,
        0.0,
        0.0,
        0.0,
        1.0
      ],
      "name": "Sketchfab_model"
    },
    {
      "children": [
        2
      ],
      "name": "root"
    },
    {
      "children": [
        3
      ],
      "matrix": [
        1.0,
        0.0,
        0.0,
        0.0,
        0.0,
        2.220446049250313e-16,
        1.0,
        0.0,
        0.0,
        -1.0,
        2.220446049250313e-16,
        0.0,
        0.0,
        0.0,
        0.0,
        1.0
      ],
      "name": "GLTF_SceneRootNode"
    },
    {
      "children": [
        4
      ],
      "name": "Sphere_0",
      "scale": [
        1.653583288192749,
        1.653583288192749,
        1.653583288192749
      ]
    },
    {
      "mesh": 0,
      "name": "mesh_0"
    }
  ],
  "scene": 0,
  "scenes": [
    {
      "name": "Sketchfab_Scene",
      "nodes": [
        0
      ]
    }
  ]
}
