{
  "accessors": [
    {
      "bufferView": 2,
      "componentType": 5126,
      "count": 506,
      "max": [
        35.59343719482422,
        11.234931945800781,
        20.22674560546875
      ],
      "min": [
        27.099102020263672,
        -2.5329370498657227,
        -20.224794387817383
      ],
      "type": "VEC3"
    },
    {
      "bufferView": 2,
      "byteOffset": 6072,
      "componentType": 5126,
      "count": 506,
      "max": [
        0.9916349053382874,
        0.9886093139648438,
        0.9894875288009644
      ],
      "min": [
        -0.9992190599441528,
        -0.9765894412994385,
        -0.9894875288009644
      ],
      "type": "VEC3"
    },
    {
      "bufferView": 1,
      "componentType": 5126,
      "count": 506,
      "max": [
        0.3135794401168823,
        0.9663557410240173
      ],
      "min": [
        0.046534836292266846,
        0.7315661907196045
      ],
      "type": "VEC2"
    },
    {
      "bufferView": 2,
      "byteOffset": 12144,
      "componentType": 5126,
      "count": 506,
      "max": [
        0.43068504333496094,
        5.219764709472656,
        3.677457809448242
      ],
      "min": [
        -0.4306793212890625,
        -3.7019214630126953,
        -3.5830917358398438
      ],
      "type": "VEC3"
    },
    {
      "bufferView": 2,
      "byteOffset": 18216,
      "componentType": 5126,
      "count": 506,
      "max": [
        0.2495884895324707,
        0.4076474606990814,
        0.5494159460067749
      ],
      "min": [
        -0.20678868889808655,
        -0.36307764053344727,
        -0.5577864646911621
      ],
      "type": "VEC3"
    },
    {
      "bufferView": 0,
      "componentType": 5125,
      "count": 2688,
      "type": "SCALAR"
    },
    {
      "bufferView": 2,
      "byteOffset": 24288,
      "componentType": 5126,
      "count": 55,
      "max": [
        34.30756378173828,
        -7.516599178314209,
        21.66100311279297
      ],
      "min": [
        24.823772430419922,
        -12.494153022766113,
        -22.106197357177734
      ],
      "type": "VEC3"
    },
    {
      "bufferView": 2,
      "byteOffset": 24948,
      "componentType": 5126,
      "count": 55,
      "max": [
        0.976743221282959,
        0.11606579273939133,
        0.7252366542816162
      ],
      "min": [
        -0.8866878151893616,
        -0.9998769164085388,
        -0.9119998216629028
      ],
      "type": "VEC3"
    },
    {
      "bufferView": 1,
      "byteOffset": 4048,
      "componentType": 5126,
      "count": 55,
      "max": [
        0.8220080733299255,
        0.7877896428108215
      ],
      "min": [
        0.15055060386657715,
        0.6180877685546875
      ],
      "type": "VEC2"
    },
    {
      "bufferView": 2,
      "byteOffset": 25608,
      "componentType": 5126,
      "count": 55,
      "max": [
        0.0,
        0.19504928588867188,
        2.917217254638672
      ],
      "min": [
        -0.4757843017578125,
        -0.8685908317565918,
        -2.6300716400146484
      ],
      "type": "VEC3"
    },
    {
      "bufferView": 2,
      "byteOffset": 26268,
      "componentType": 5126,
      "count": 55,
      "max": [
        0.6736669540405273,
        0.5925739407539368,
        0.4655952751636505
      ],
      "min": [
        -1.307921051979065,
        -0.5826483964920044,
        -0.3300201892852783
      ],
      "type": "VEC3"
    },
    {
      "bufferView": 0,
      "byteOffset": 10752,
      "componentType": 5125,
      "count": 159,
      "type": "SCALAR"
    },
    {
      "bufferView": 2,
      "byteOffset": 26928,
      "componentType": 5126,
      "count": 730,
      "max": [
        35.58385467529297,
        35.4947509765625,
        35.36525344848633
      ],
      "min": [
        -35.59343719482422,
        -35.4947509765625,
        -35.36525344848633
      ],
      "type": "VEC3"
    },
    {
      "bufferView": 2,
      "byteOffset": 35688,
      "componentType": 5126,
      "count": 730,
      "max": [
        0.9997497200965881,
        0.9992865920066833,
        0.9974477291107178
      ],
      "min": [
        -0.9998584389686584,
        -0.9965969324111938,
        -0.9974477291107178
      ],
      "type": "VEC3"
    },
    {
      "bufferView": 1,
      "byteOffset": 4488,
      "componentType": 5126,
      "count": 730,
      "max": [
        1.0,
        0.612798273563385
      ],
      "min": [
        0.0,
        0.0
      ],
      "type": "VEC2"
    },
    {
      "bufferView": 2,
      "byteOffset": 44448,
      "componentType": 5126,
      "count": 730,
      "max": [
        0.23542022705078125,
        4.114900588989258,
        3.025350570678711
      ],
      "min": [
        -0.5022373199462891,
        -0.6808710098266602,
        -3.025350570678711
      ],
      "type": "VEC3"
    },
    {
      "bufferView": 2,
      "byteOffset": 53208,
      "componentType": 5126,
      "count": 730,
      "max": [
        0.508246660232544,
        1.5974093675613403,
        0.6142922043800354
      ],
      "min": [
        -1.5124709606170654,
        -0.6261318325996399,
        -1.3584067821502686
      ],
      "type": "VEC3"
    },
    {
      "bufferView": 0,
      "byteOffset": 11388,
      "componentType": 5125,
      "count": 3996,
      "type": "SCALAR"
    },
    {
      "bufferView": 2,
      "byteOffset": 61968,
      "componentType": 5126,
      "count": 132,
      "max": [
        33.405364990234375,
        -8.793355941772461,
        21.73773956298828
      ],
      "min": [
        22.00981330871582,
        -26.18762969970703,
        -22.242647171020508
      ],
      "type": "VEC3"
    },
    {
      "bufferView": 2,
      "byteOffset": 63552,
      "componentType": 5126,
      "count": 132,
      "max": [
        0.9291069507598877,
        -0.2859170436859131,
        0.6097050905227661
      ],
      "min": [
        0.23809294402599335,
        -0.971242368221283,
        -0.6095457673072815
      ],
      "type": "VEC3"
    },
    {
      "bufferView": 1,
      "byteOffset": 10328,
      "componentType": 5126,
      "count": 132,
      "max": [
        0.5914987921714783,
        0.2632194757461548
      ],
      "min": [
        0.4084635376930237,
        0.13772356510162354
      ],
      "type": "VEC2"
    },
    {
      "bufferView": 2,
      "byteOffset": 65136,
      "componentType": 5126,
      "count": 132,
      "max": [
        0.23542022705078125,
        4.114900588989258,
        3.025350570678711
      ],
      "min": [
        -0.39429283142089844,
        -0.5353574752807617,
        -3.025350570678711
      ],
      "type": "VEC3"
    },
    {
      "bufferView": 2,
      "byteOffset": 66720,
      "componentType": 5126,
      "count": 132,
      "max": [
        0.6626141667366028,
        0.5368154644966125,
        0.7294045090675354
      ],
      "min": [
        -0.046505630016326904,
        -0.04298710823059082,
        -0.699209451675415
      ],
      "type": "VEC3"
    },
    {
      "bufferView": 0,
      "byteOffset": 27372,
      "componentType": 5125,
      "count": 666,
      "type": "SCALAR"
    },
    {
      "bufferView": 3,
      "componentType": 5126,
      "count": 214,
      "max": [
        5.0
      ],
      "min": [
        0.0416666679084301
      ],
      "type": "SCALAR"
    },
    {
      "bufferView": 4,
      "componentType": 5126,
      "count": 214,
      "max": [
        0.0047931671142578125,
        35.4947509765625,
        3.552713678800501e-15
      ],
      "min": [
        0.0047931671142578125,
        35.4947509765625,
        -3.552713678800501e-15
      ],
      "type": "VEC3"
    },
    {
      "bufferView": 3,
      "byteOffset": 856,
      "componentType": 5126,
      "count": 216,
      "max": [
        5.0
      ],
      "min": [
        0.0416666679084301
      ],
      "type": "SCALAR"
    },
    {
      "bufferView": 5,
      "componentType": 5126,
      "count": 216,
      "max": [
        8.326672684688674e-17,
        5.551115123125783e-17,
        7.632783294297951e-17,
        1.0
      ],
      "min": [
        -8.326672684688674e-17,
        -5.551115123125783e-17,
        -6.92940713489798e-17,
        1.0
      ],
      "type": "VEC4"
    },
    {
      "bufferView": 3,
      "byteOffset": 1720,
      "componentType": 5126,
      "count": 151,
      "max": [
        4.916666507720947
      ],
      "min": [
        0.0416666679084301
      ],
      "type": "SCALAR"
    },
    {
      "bufferView": 4,
      "byteOffset": 2568,
      "componentType": 5126,
      "count": 151,
      "max": [
        0.0,
        -19.821949005126953,
        0.0
      ],
      "min": [
        0.0,
        -42.76472854614258,
        0.0
      ],
      "type": "VEC3"
    },
    {
      "bufferView": 3,
      "byteOffset": 2324,
      "componentType": 5126,
      "count": 151,
      "max": [
        4.916666507720947
      ],
      "min": [
        0.0416666679084301
      ],
      "type": "SCALAR"
    },
    {
      "bufferView": 5,
      "byteOffset": 3456,
      "componentType": 5126,
      "count": 151,
      "max": [
        0.11155092716217041,
        0.04962483420968056,
        0.13380596041679382,
        1.0
      ],
      "min": [
        -0.22073489427566528,
        -0.11524667590856552,
        -0.13790814578533173,
        0.9595789909362793
      ],
      "type": "VEC4"
    },
    {
      "bufferView": 3,
      "byteOffset": 2928,
      "componentType": 5126,
      "count": 125,
      "max": [
        4.175000190734863
      ],
      "min": [
        0.0416666679084301
      ],
      "type": "SCALAR"
    },
    {
      "bufferView": 3,
      "byteOffset": 3428,
      "componentType": 5126,
      "count": 125,
      "max": [
        1.0
      ],
      "min": [
        0.0
      ],
      "type": "SCALAR"
    },
    {
      "bufferView": 3,
      "byteOffset": 3928,
      "componentType": 5126,
      "count": 125,
      "max": [
        4.175000190734863
      ],
      "min": [
        0.0416666679084301
      ],
      "type": "SCALAR"
    },
    {
      "bufferView": 3,
      "byteOffset": 4428,
      "componentType": 5126,
      "count": 125,
      "max": [
        1.0
      ],
      "min": [
        0.0
      ],
      "type": "SCALAR"
    },
    {
      "bufferView": 3,
      "byteOffset": 4928,
      "componentType": 5126,
      "count": 125,
      "max": [
        4.175000190734863
      ],
      "min": [
        0.0416666679084301
      ],
      "type": "SCALAR"
    },
    {
      "bufferView": 3,
      "byteOffset": 5428,
      "componentType": 5126,
      "count": 125,
      "max": [
        1.0
      ],
      "min": [
        0.0
      ],
      "type": "SCALAR"
    },
    {
      "bufferView": 3,
      "byteOffset": 5928,
      "componentType": 5126,
      "count": 125,
      "max": [
        4.175000190734863
      ],
      "min": [
        0.0416666679084301
      ],
      "type": "SCALAR"
    },
    {
      "bufferView": 3,
      "byteOffset": 6428,
      "componentType": 5126,
      "count": 125,
      "max": [
        1.0
      ],
      "min": [
        0.0
      ],
      "type": "SCALAR"
    }
  ],
  "animations": [
    {
      "channels": [
        {
          "sampler": 0,
          "target": {
            "node": 5,
            "path": "translation"
          }
        },
        {
          "sampler": 1,
          "target": {
            "node": 5,
            "path": "rotation"
          }
        },
        {
          "sampler": 2,
          "target": {
            "node": 4,
            "path": "translation"
          }
        },
        {
          "sampler": 3,
          "target": {
            "node": 4,
            "path": "rotation"
          }
        },
        {
          "sampler": 4,
          "target": {
            "node": 6,
            "path": "weights"
          }
        },
        {
          "sampler": 5,
          "target": {
            "node": 7,
            "path": "weights"
          }
        },
        {
          "sampler": 6,
          "target": {
            "node": 8,
            "path": "weights"
          }
        },
        {
          "sampler": 7,
          "target": {
            "node": 9,
            "path": "weights"
          }
        }
      ],
      "name": "Take 001",
      "samplers": [
        {
          "input": 24,
          "interpolation": "LINEAR",
          "output": 25
        },
        {
          "input": 26,
          "interpolation": "LINEAR",
          "output": 27
        },
        {
          "input": 28,
          "interpolation": "LINEAR",
          "output": 29
        },
        {
          "input": 30,
          "interpolation": "LINEAR",
          "output": 31
        },
        {
          "input": 32,
          "interpolation": "LINEAR",
          "output": 33
        },
        {
          "input": 34,
          "interpolation": "LINEAR",
          "output": 35
        },
        {
          "input": 36,
          "interpolation": "LINEAR",
          "output": 37
        },
        {
          "input": 38,
          "interpolation": "LINEAR",
          "output": 39
        }
      ]
    }
  ],
  "asset": {
    "extras": {
      "author": "JadeBarbiier (https://sketchfab.com/JadeBarbiier)",
      "license": "CC-BY-4.0 (http://creativecommons.org/licenses/by/4.0/)",
      "source": "https://sketchfab.com/3d-models/emoji-smile-04-b5cd533da2a340429b10e6391d129a3d",
      "title": "Emoji_Smile_04"
    },
    "generator": "Sketchfab-12.66.0",
    "version": "2.0"
  },
  "bufferViews": [
    {
      "buffer": 0,
      "byteLength": 30036,
      "name": "floatBufferViews",
      "target": 34963
    },
    {
      "buffer": 0,
      "byteLength": 11384,
      "byteOffset": 30036,
      "byteStride": 8,
      "name": "floatBufferViews",
      "target": 34962
    },
    {
      "buffer": 0,
      "byteLength": 68304,
      "byteOffset": 41420,
      "byteStride": 12,
      "name": "floatBufferViews",
      "target": 34962
    },
    {
      "buffer": 0,
      "byteLength": 6928,
      "byteOffset": 109724,
      "name": "floatBufferViews"
    },
    {
      "buffer": 0,
      "byteLength": 4380,
      "byteOffset": 116652,
      "byteStride": 12,
      "name": "floatBufferViews"
    },
    {
      "buffer": 0,
      "byteLength": 5872,
      "byteOffset": 121032,
      "byteStride": 16,
      "name": "floatBufferViews"
    }
  ],
  "buffers": [
    {
      "byteLength": 126904,
      "uri": "scene.bin"
    }
  ],
  "extensionsUsed": [
    "KHR_texture_transform"
  ],
  "images": [
    {
      "uri": "textures/Brown1_baseColor.png"
    },
    {
      "uri": "textures/Skin_baseColor.png"
    }
  ],
  "materials": [
    {
      "doubleSided": true,
      "name": "Brown1",
      "pbrMetallicRoughness": {
        "baseColorTexture": {
          "extensions": {
            "KHR_texture_transform": {
              "offset": [
                -0.09301547735148907,
                -0.3707886116067861
              ]
            }
          },
          "index": 0
        },
        "metallicFactor": 0.0,
        "roughnessFactor": 0.1898192637008467
      }
    },
    {
      "doubleSided": true,
      "name": "Teeth",
      "pbrMetallicRoughness": {
        "metallicFactor": 0.0,
        "roughnessFactor": 0.14126437847245668
      }
    },
    {
      "doubleSided": true,
      "name": "Skin",
      "pbrMetallicRoughness": {
        "baseColorTexture": {
          "index": 1
        },
        "metallicFactor": 0.0,
        "roughnessFactor": 0.10484821455116414
      }
    },
    {
      "doubleSided": true,
      "name": "Mouth",
      "pbrMetallicRoughness": {
        "baseColorTexture": {
          "extensions": {
            "KHR_texture_transform": {
              "offset": [
                0,
                -0.9567209097930593
              ]
            }
          },
          "index": 0
        },
        "metallicFactor": 0.0,
        "roughnessFactor": 0.43259368984279695
      }
    }
  ],
  "meshes": [
    {
      "name": "0",
      "primitives": [
        {
          "attributes": {
            "NORMAL": 1,
            "POSITION": 0,
            "TEXCOORD_0": 2
          },
          "indices": 5,
          "material": 0,
          "mode": 4,
          "targets": [
            {
              "NORMAL": 4,
              "POSITION": 3
            }
          ]
        }
      ],
      "weights": [
        0.0
      ]
    },
    {
      "name": "1",
      "primitives": [
        {
          "attributes": {
            "NORMAL": 7,
            "POSITION": 6,
            "TEXCOORD_0": 8
          },
          "indices": 11,
          "material": 1,
          "mode": 4,
          "targets": [
            {
              "NORMAL": 10,
              "POSITION": 9
            }
          ]
        }
      ],
      "weights": [
        0.0
      ]
    },
    {
      "name": "2",
      "primitives": [
        {
          "attributes": {
            "NORMAL": 13,
            "POSITION": 12,
            "TEXCOORD_0": 14
          },
          "indices": 17,
          "material": 2,
          "mode": 4,
          "targets": [
            {
              "NORMAL": 16,
              "POSITION": 15
            }
          ]
        }
      ],
      "weights": [
        0.0
      ]
    },
    {
      "name": "3",
      "primitives": [
        {
          "attributes": {
            "NORMAL": 19,
            "POSITION": 18,
            "TEXCOORD_0": 20
          },
          "indices": 23,
          "material": 3,
          "mode": 4,
          "targets": [
            {
              "NORMAL": 22,
              "POSITION": 21
            }
          ]
        }
      ],
      "weights": [
        0.0
      ]
    }
  ],
  "nodes": [
    {
      "children": [
        1
      ],
      "matrix": [
        1.0,
        0.0,
        0.0,
        0.0,
        0.0,
        2.220446049250313e-16,
        -1.0,
        0.0,
        0.0,
        1.0,
        2.220446049250313e-16,
        0.0,
        0.0,
        0.0,
        0.0,
        1.0
      ],
      "name": "Sketchfab_model"
    },
    {
      "children": [
        2
      ],
      "matrix": [
        0.009999999776482582,
        0.0,
        0.0,
        0.0,
        0.0,
        0.0,
        0.009999999776482582,
        0.0,
        0.0,
        -0.009999999776482582,
        0.0,
        0.0,
        0.0,
        0.0,
        0.0,
        1.0
      ],
      "name": "62e724925a404a46824033ef8447b511.fbx"
    },
    {
      "children": [
        3
      ],
      "name": "Object_2"
    },
    {
      "children": [
        4
      ],
      "name": "RootNode"
    },
    {
      "children": [
        5
      ],
      "name": "group1",
      "translation": [
        0.0,
        -35.4947509765625,
        0.0
      ]
    },
    {
      "children": [
        6,
        7,
        8,
        9
      ],
      "name": "Smile_02",
      "translation": [
        0.0047931671142578125,
        35.4947509765625,
        0.0
      ]
    },
    {
      "mesh": 0,
      "name": "0"
    },
    {
      "mesh": 1,
      "name": "1"
    },
    {
      "mesh": 2,
      "name": "2"
    },
    {
      "mesh": 3,
      "name": "3"
    }
  ],
  "samplers": [
    {
      "magFilter": 9729,
      "minFilter": 9987,
      "wrapS": 10497,
      "wrapT": 10497
    }
  ],
  "scene": 0,
  "scenes": [
    {
      "name": "Sketchfab_Scene",
      "nodes": [
        0
      ]
    }
  ],
  "textures": [
    {
      "sampler": 0,
      "source": 0
    },
    {
      "sampler": 0,
      "source": 1
    }
  ]
}
