{
  "accessors": [
    {
      "bufferView": 2,
      "componentType": 5126,
      "count": 10493,
      "max": [
        95.82575988769531,
        60.085018157958984,
        75.98441314697266
      ],
      "min": [
        -95.93144989013672,
        -20.129846572875977,
        -104.61132049560547
      ],
      "type": "VEC3"
    },
    {
      "bufferView": 2,
      "byteOffset": 125916,
      "componentType": 5126,
      "count": 10493,
      "max": [
        0.999801754951477,
        0.9993027448654175,
        0.9995030164718628
      ],
      "min": [
        -0.9997950196266174,
        -0.9992991089820862,
        -0.9994942545890808
      ],
      "type": "VEC3"
    },
    {
      "bufferView": 1,
      "componentType": 5126,
      "count": 10493,
      "max": [
        0.0,
        0.0
      ],
      "min": [
        0.0,
        0.0
      ],
      "type": "VEC2"
    },
    {
      "bufferView": 0,
      "componentType": 5125,
      "count": 21810,
      "type": "SCALAR"
    }
  ],
  "asset": {
    "extras": {
      "author": "3D Crafty (https://sketchfab.com/3DCrafty)",
      "license": "CC-BY-NC-4.0 (http://creativecommons.org/licenses/by-nc/4.0/)",
      "source": "https://sketchfab.com/3d-models/infinite-loop-6d9ba660a57d4be4b898bf9f7133e985",
      "title": "Infinite LOOP"
    },
    "generator": "Sketchfab-12.67.0",
    "version": "2.0"
  },
  "bufferViews": [
    {
      "buffer": 0,
      "byteLength": 87240,
      "name": "floatBufferViews",
      "target": 34963
    },
    {
      "buffer": 0,
      "byteLength": 83944,
      "byteOffset": 87240,
      "byteStride": 8,
      "name": "floatBufferViews",
      "target": 34962
    },
    {
      "buffer": 0,
      "byteLength": 251832,
      "byteOffset": 171184,
      "byteStride": 12,
      "name": "floatBufferViews",
      "target": 34962
    }
  ],
  "buffers": [
    {
      "byteLength": 423016,
      "uri": "scene.bin"
    }
  ],
  "materials": [
    {
      "doubleSided": true,
      "name": "material_0",
      "pbrMetallicRoughness": {
        "roughnessFactor": 0.07825204802722463
      }
    }
  ],
  "meshes": [
    {
      "name": "Object_0",
      "primitives": [
        {
          "attributes": {
            "NORMAL": 1,
            "POSITION": 0,
            "TEXCOORD_0": 2
          },
          "indices": 3,
          "material": 0,
          "mode": 4
        }
      ]
    }
  ],
  "nodes": [
    {
      "children": [
        1
      ],
      "matrix": [
        0.005667157005518675,
        2.8637365011685583e-18,
        -6.291808191692581e-19,
        0.0,
        -2.8637365011685583e-18,
        0.005667157005518675,
        0.0,
        0.0,
        6.291808191692588e-19,
        0.0,
        0.005667157005518675,
        0.0,
        5.009881398621019e-15,
        5.664486885070809,
        -34.290836334228516,
        1.0
      ],
      "name": "Sketchfab_model"
    },
    {
      "children": [
        2
      ],
      "matrix": [
        1.0,
        0.0,
        0.0,
        0.0,
        0.0,
        0.0,
        1.0,
        0.0,
        0.0,
        -1.0,
        0.0,
        0.0,
        0.0,
        0.0,
        0.0,
        1.0
      ],
      "name": "currentmodel.wrl.cleaner.materialmerger.gles"
    },
    {
      "mesh": 0,
      "name": "Object_2"
    }
  ],
  "scene": 0,
  "scenes": [
    {
      "name": "Sketchfab_Scene",
      "nodes": [
        0
      ]
    }
  ]
}
